<?xml version="1.0" encoding="utf-8"?>
<!-- Generator: Adobe Illustrator 19.1.0, SVG Export Plug-In . SVG Version: 6.00 Build 0)  -->
<svg version="1.1" id="Layer_1" xmlns="http://www.w3.org/2000/svg" xmlns:xlink="http://www.w3.org/1999/xlink" x="0px" y="0px"
	 width="43.7px" height="43.7px" viewBox="0 0 43.7 43.7" enable-background="new 0 0 43.7 43.7" xml:space="preserve">
<g>
	<path d="M21.8,0C9.8,0,0,9.8,0,21.8c0,12,9.8,21.8,21.8,21.8c12,0,21.8-9.8,21.8-21.8C43.7,9.8,33.9,0,21.8,0z M21.8,39.7
		C12,39.7,4,31.7,4,21.8C4,12,12,4,21.8,4s17.8,8,17.8,17.8C39.7,31.7,31.7,39.7,21.8,39.7z"/>
	<polygon points="10.9,21.7 28.5,31 28.5,12.4 	"/>
</g>
</svg>
