<?xml version="1.0" encoding="utf-8"?>
<!-- Generator: Adobe Illustrator 19.1.0, SVG Export Plug-In . SVG Version: 6.00 Build 0)  -->
<svg version="1.1" id="Layer_1" xmlns="http://www.w3.org/2000/svg" xmlns:xlink="http://www.w3.org/1999/xlink" x="0px" y="0px"
	 width="32px" height="32px" viewBox="0 0 32 32" style="enable-background:new 0 0 32 32;" xml:space="preserve">
<path d="M30.9,1.1C30.2,0.4,29.3,0,28.3,0h0c-1,0-1.9,0.4-2.7,1.1l-0.2,0.2l-0.2-0.2c-0.7-0.7-1.6-1.1-2.6-1.1c0,0,0,0,0,0
	c-1,0-1.9,0.4-2.6,1.1l-7.1,7.1c-0.4,0.4-0.4,1,0,1.4c0.2,0.2,0.5,0.3,0.7,0.3s0.5-0.1,0.7-0.3l7.1-7.1c0.3-0.3,0.7-0.5,1.2-0.5h0
	c0.5,0,0.9,0.2,1.2,0.5L24,2.8L3.4,23.3l-0.2,0.2L0,32l8.6-3.3L30.9,6.4l0,0C31.6,5.7,32,4.8,32,3.8S31.6,1.8,30.9,1.1z M5.5,24
	l13.4-13.4l2.5,2.5L8,26.5L5.5,24z M4.5,25.8l1.7,1.7l-2.8,1L4.5,25.8z M29.5,5l-6.7,6.7l-2.5-2.5l5.8-5.8c0,0,0,0,0,0s0,0,0,0l1-1
	C27.4,2.2,27.8,2,28.3,2c0,0,0,0,0,0c0.5,0,0.9,0.2,1.2,0.5C29.8,2.8,30,3.3,30,3.8S29.8,4.7,29.5,5z"/>
</svg>
