<?xml version="1.0" encoding="utf-8"?>
<!-- Generator: Adobe Illustrator 19.1.0, SVG Export Plug-In . SVG Version: 6.00 Build 0)  -->
<svg version="1.1" id="Layer_1" xmlns="http://www.w3.org/2000/svg" xmlns:xlink="http://www.w3.org/1999/xlink" x="0px" y="0px"
	 width="47px" height="42.5px" viewBox="0 0 47 42.5" style="enable-background:new 0 0 47 42.5;" xml:space="preserve">
<g>
	<path d="M17.5,28.5H7c-0.6,0-1,0.4-1,1s0.4,1,1,1h10.5c0.6,0,1-0.4,1-1S18.1,28.5,17.5,28.5z"/>
	<path d="M31,24h-4.5c-0.6,0-1,0.4-1,1s0.4,1,1,1H31c0.6,0,1-0.4,1-1S31.6,24,31,24z"/>
	<path d="M8.5,34.5H7c-0.6,0-1,0.4-1,1s0.4,1,1,1h1.5c0.6,0,1-0.4,1-1S9.1,34.5,8.5,34.5z"/>
	<path d="M16,34.5h-1.5c-0.6,0-1,0.4-1,1s0.4,1,1,1H16c0.6,0,1-0.4,1-1S16.6,34.5,16,34.5z"/>
	<path d="M23.5,34.5H22c-0.6,0-1,0.4-1,1s0.4,1,1,1h1.5c0.6,0,1-0.4,1-1S24.1,34.5,23.5,34.5z"/>
	<path d="M31,34.5h-1.5c-0.6,0-1,0.4-1,1s0.4,1,1,1H31c0.6,0,1-0.4,1-1S31.6,34.5,31,34.5z"/>
	<path d="M46.8,19.8l-6.5-18c-0.5-1.4-2.1-2.2-3.6-1.7L6.3,11.2c-1.4,0.5-2.2,2.1-1.7,3.6L5.8,18h-3C1.3,18,0,19.3,0,20.8v18.9
		c0,1.5,1.3,2.8,2.8,2.8h32.4c1.5,0,2.8-1.3,2.8-2.8V26l7.2-2.6c0.7-0.3,1.3-0.8,1.6-1.4S47.1,20.5,46.8,19.8z M7,13.1L37.4,2
		c0.4-0.1,0.9,0.1,1,0.5l1.1,3L7.6,17.1l-1.1-3C6.4,13.7,6.6,13.2,7,13.1z M36,39.7c0,0.4-0.4,0.8-0.8,0.8H2.8
		c-0.4,0-0.8-0.4-0.8-0.8V20.8C2,20.4,2.4,20,2.8,20h32.4c0.4,0,0.8,0.4,0.8,0.8V39.7z M44.9,21.1c-0.1,0.2-0.2,0.3-0.4,0.4L38,23.9
		v-3.1c0-1.5-1.3-2.8-2.8-2.8H11.1L40.2,7.4L45,20.5C45,20.7,45,20.9,44.9,21.1z"/>
	<path d="M37.6,11.3l-3.4,1.2c-0.5,0.2-0.8,0.8-0.6,1.3c0.1,0.4,0.5,0.7,0.9,0.7c0.1,0,0.2,0,0.3-0.1l3.4-1.2
		c0.5-0.2,0.8-0.8,0.6-1.3C38.7,11.4,38.1,11.1,37.6,11.3z"/>
</g>
</svg>
