<?xml version="1.0" encoding="utf-8"?>
<!-- Generator: Adobe Illustrator 19.1.0, SVG Export Plug-In . SVG Version: 6.00 Build 0)  -->
<svg version="1.1" id="Layer_1" xmlns="http://www.w3.org/2000/svg" xmlns:xlink="http://www.w3.org/1999/xlink" x="0px" y="0px"
	 width="51.2px" height="51.2px" viewBox="0 0 51.2 51.2" enable-background="new 0 0 51.2 51.2" xml:space="preserve">
<g>
	<path d="M24.8,40h1.6V26.4H40v-1.6H26.4V11.2h-1.6v13.6H11.2v1.6h13.6V40z M24.8,40"/>
	<path d="M25.6,51.2L25.6,51.2c6.8,0,13.3-2.7,18.1-7.5c4.8-4.8,7.5-11.3,7.5-18.1c0-6.8-2.7-13.3-7.5-18.1C38.9,2.7,32.4,0,25.6,0
		h0C18.8,0,12.3,2.7,7.5,7.5C2.7,12.3,0,18.8,0,25.6c0,6.8,2.7,13.3,7.5,18.1C12.3,48.5,18.8,51.2,25.6,51.2L25.6,51.2z M8.6,8.6
		c4.5-4.5,10.6-7,17-7c6.4,0,12.4,2.5,17,7c4.5,4.5,7,10.6,7,17c0,6.4-2.5,12.4-7,17c-4.5,4.5-10.6,7-17,7h0c-6.4,0-12.4-2.5-17-7
		c-4.5-4.5-7-10.6-7-17C1.6,19.2,4.1,13.2,8.6,8.6L8.6,8.6z M8.6,8.6"/>
</g>
</svg>
