<?xml version="1.0" encoding="utf-8"?>
<!-- Generator: Adobe Illustrator 19.1.0, SVG Export Plug-In . SVG Version: 6.00 Build 0)  -->
<svg version="1.1" id="Layer_1" xmlns="http://www.w3.org/2000/svg" xmlns:xlink="http://www.w3.org/1999/xlink" x="0px" y="0px"
	 width="32px" height="28px" viewBox="0 0 32 28" style="enable-background:new 0 0 32 28;" xml:space="preserve">
<g>
	<path d="M31,0H1C0.4,0,0,0.4,0,1v26c0,0.6,0.4,1,1,1h30c0.6,0,1-0.4,1-1V1C32,0.4,31.6,0,31,0z M30,2v4H2V2H30z M2,26V8h28v18H2z"
		/>
	<path d="M4,5c0.3,0,0.5-0.1,0.7-0.3C4.9,4.5,5,4.3,5,4c0-0.3-0.1-0.5-0.3-0.7c-0.4-0.4-1-0.4-1.4,0C3.1,3.5,3,3.7,3,4
		c0,0.3,0.1,0.5,0.3,0.7C3.5,4.9,3.7,5,4,5z"/>
	<path d="M7,5c0.3,0,0.5-0.1,0.7-0.3C7.9,4.5,8,4.3,8,4c0-0.3-0.1-0.5-0.3-0.7c-0.4-0.4-1-0.4-1.4,0C6.1,3.5,6,3.7,6,4
		c0,0.3,0.1,0.5,0.3,0.7C6.5,4.9,6.7,5,7,5z"/>
	<path d="M10,5c0.3,0,0.5-0.1,0.7-0.3C10.9,4.5,11,4.3,11,4c0-0.3-0.1-0.5-0.3-0.7c-0.4-0.4-1-0.4-1.4,0C9.1,3.5,9,3.7,9,4
		c0,0.3,0.1,0.5,0.3,0.7C9.5,4.9,9.7,5,10,5z"/>
	<path d="M5,16h6v-6H5V16z M7,12h2v2H7V12z"/>
	<path d="M13,16h6v-6h-6V16z M15,12h2v2h-2V12z"/>
	<path d="M21,16h6v-6h-6V16z M23,12h2v2h-2V12z"/>
	<path d="M5,24h6v-6H5V24z M7,20h2v2H7V20z"/>
	<path d="M13,24h6v-6h-6V24z M15,20h2v2h-2V20z"/>
	<path d="M21,24h6v-6h-6V24z M23,20h2v2h-2V20z"/>
</g>
</svg>
