<?xml version="1.0" encoding="utf-8"?>
<!-- Generator: Adobe Illustrator 19.1.0, SVG Export Plug-In . SVG Version: 6.00 Build 0)  -->
<svg version="1.1" id="Layer_1" xmlns="http://www.w3.org/2000/svg" xmlns:xlink="http://www.w3.org/1999/xlink" x="0px" y="0px"
	 width="65px" height="120.8px" viewBox="0 0 65 120.8" enable-background="new 0 0 65 120.8" xml:space="preserve">
<g>
	<path d="M63.2,9.9c-0.7-3.8-1.4-4.6-2-4.8c-4-1.9-21.9-5-28.7-5C25.8,0,7.8,3.2,3.8,5c-0.6,0.3-1.3,1.1-2,4.8
		c-2.9,14.9-4,65.9,10,81.3c7.7,8.9,17.5,10.8,20.6,10.8s12.9-1.9,20.6-10.8C67.2,75.8,66.1,24.7,63.2,9.9z M52,90.2
		c-6.5,7.5-15.4,10.3-19.5,10.3c-4.1,0-13-2.8-19.5-10.3C8,84.7,4.4,73.6,2.7,57.9c-1.3-12-1.6-26.4-0.6-38.5
		c0.7-8.7,1.8-12.6,2.4-13c3.8-1.8,21.6-4.9,28-4.9s24.2,3.1,28,4.9c0.6,0.5,1.7,4.3,2.4,13c1,12.1,0.8,26.5-0.6,38.5
		C60.6,73.6,57,84.7,52,90.2z"/>
	<path d="M48.3,55H16.7c-1.3,0-3.2,0.9-3.2,3.2v7.8c0,0.1,0,0.8,0.4,1.6c0.5,1.1,1.5,1.7,2.8,1.7h31.5c1.3,0,3.2-0.9,3.2-3.2v-7.8
		C51.5,56.9,50.6,55,48.3,55z M50,65.9c0,1.6-1.4,1.7-1.7,1.7H16.7c-1.6,0-1.7-1.4-1.7-1.7v-7.8c0-1.6,1.4-1.7,1.7-1.7h31.5
		c1.6,0,1.7,1.4,1.7,1.7V65.9z"/>
	<path d="M45.4,106.2c-3.5-1.1-8-1.8-12.9-1.8c-4.9,0-9.5,0.6-12.9,1.8c-4.8,1.6-5.8,3.5-5.8,4.9c0,1.4,1,3.3,5.8,4.9
		c0.4,0.1,0.8-0.1,1-0.5c0.1-0.4-0.1-0.8-0.5-1c-3-1-4.7-2.3-4.7-3.5c0-2.4,7.1-5.2,17.2-5.2c10.1,0,17.2,2.7,17.2,5.2
		c0,2.4-7,5.1-17,5.1l2.6-2.9c0.3-0.3,0.3-0.8-0.1-1.1c-0.3-0.3-0.8-0.3-1.1,0.1l-4.4,4.8l5.3,3.5c0.1,0.1,0.3,0.1,0.4,0.1
		c0.2,0,0.5-0.1,0.6-0.3c0.2-0.3,0.1-0.8-0.2-1l-2.5-1.6c4.5-0.1,8.7-0.7,11.9-1.8c4.8-1.6,5.8-3.5,5.8-4.9
		C51.2,109.7,50.2,107.8,45.4,106.2z"/>
</g>
<g>
	<polygon fill="currentColor" points="44.6,60.9 42.6,60.9 42.6,62.9 44.6,62.9 	"/>
	<polygon fill="currentColor" points="27.9,60.9 27.9,62.9 29.8,62.9 29.8,60.9 	"/>
	<polygon fill="currentColor" points="24.2,60.9 24.2,62.9 26.2,62.9 26.1,60.9 	"/>
	<polygon fill="currentColor" points="31.6,60.9 31.6,62.9 33.5,62.9 33.5,60.9 	"/>
	<polygon fill="currentColor" points="38.9,60.9 38.9,62.9 40.9,62.9 40.9,60.9 	"/>
	<polygon fill="currentColor" points="35.3,60.9 35.3,62.9 37.2,62.9 37.2,60.9 	"/>
	<polygon fill="currentColor" points="20.5,60.9 20.5,62.9 22.5,62.9 22.4,60.9 	"/>
</g>
</svg>
