<?xml version="1.0" encoding="utf-8"?>
<!-- Generator: Adobe Illustrator 19.1.0, SVG Export Plug-In . SVG Version: 6.00 Build 0)  -->
<svg version="1.1" id="Layer_1" xmlns="http://www.w3.org/2000/svg" xmlns:xlink="http://www.w3.org/1999/xlink" x="0px" y="0px"
	 width="228.7px" height="192.2px" viewBox="-326.3 66.1 228.7 192.2" enable-background="new -326.3 66.1 228.7 192.2"
	 xml:space="preserve">
<g>
	<path d="M-149.5,84.3c-1.4-7-2.7-8.3-3.5-8.8c-7.5-3.5-41.3-9.5-54.1-9.5c-12.7,0-46.5,5.9-54.1,9.5c-0.8,0.4-2.1,1.7-3.5,8.8
		c-2.9,14.6-4.6,45.6-2.5,76.8c1.8,26.3,7,61.1,21.4,76.9c14.4,16.6,32.8,20.3,38.7,20.3c5.8,0,24.2-3.7,38.6-20.2
		c14.4-15.8,19.6-50.5,21.4-76.9C-144.8,129.9-146.6,98.9-149.5,84.3z M-148.6,161c-1.8,26.1-6.9,60.4-21,75.9
		c-12.4,14.4-29.5,19.7-37.4,19.7c-3.4,0-9.4-1.1-16.3-4.1c-5.6-2.5-13.9-7.2-21.1-15.6c-14.1-15.5-19.2-49.8-21-75.9
		c-2.2-31-0.4-61.9,2.4-76.4c1.3-6.8,2.4-7.5,2.6-7.5c7.2-3.4,41.1-9.3,53.3-9.3c12.2,0,46.2,5.9,53.3,9.3c0.1,0,1.2,0.7,2.6,7.5
		C-148.2,99.1-146.5,130-148.6,161z"/>
	<path d="M-177.1,95.3h-59.8c-1.9,0-5.5,1.2-5.5,5.5v14.7c0,1.9,1.2,5.5,5.5,5.5h59.8c1.9,0,5.5-1.2,5.5-5.5v-14.7
		c0,0,0-1.4-0.7-2.7C-172.9,96.8-174.3,95.3-177.1,95.3z M-173.3,115.5c0,3.7-3.5,3.9-3.9,3.9h-59.8c-3.7,0-3.9-3.5-3.9-3.9v-14.7
		c0-3.7,3.5-3.9,3.9-3.9h59.8c3.7,0,3.9,3.5,3.9,3.9V115.5L-173.3,115.5z"/>
	<path d="M-207,153.6c5,0,9-4.1,9-9s-4.1-9-9-9c-5,0-9,4.1-9,9S-212,153.6-207,153.6z M-207,137.1c4.1,0,7.4,3.3,7.4,7.4
		c0,4.1-3.3,7.4-7.4,7.4s-7.4-3.3-7.4-7.4C-214.4,140.5-211.1,137.1-207,137.1z"/>
	<path d="M-207,179.7c5,0,9-4.1,9-9s-4.1-9-9-9c-5,0-9,4.1-9,9S-212,179.7-207,179.7z M-207,163.2c4.1,0,7.4,3.3,7.4,7.4
		s-3.3,7.4-7.4,7.4s-7.4-3.3-7.4-7.4S-211.1,163.2-207,163.2z"/>
	<path d="M-197.9,196.7c0-5-4.1-9-9-9c-5,0-9,4.1-9,9s4.1,9,9,9C-202,205.7-197.9,201.6-197.9,196.7z M-207,204
		c-4.1,0-7.4-3.3-7.4-7.4c0-4.1,3.3-7.4,7.4-7.4s7.4,3.3,7.4,7.4C-199.6,200.7-202.9,204-207,204z"/>
	<path d="M-194.5,213.4c-5,0-9,4.1-9,9c0,5,4.1,9,9,9c5,0,9-4.1,9-9C-185.4,217.4-189.5,213.4-194.5,213.4z M-194.5,229.9
		c-4.1,0-7.4-3.3-7.4-7.4s3.3-7.4,7.4-7.4s7.4,3.3,7.4,7.4C-187.1,226.5-190.4,229.9-194.5,229.9z"/>
	<path d="M-180.6,135.5c-5,0-9,4.1-9,9c0,5,4.1,9,9,9c5,0,9-4.1,9-9C-171.6,139.5-175.7,135.5-180.6,135.5z M-180.6,151.9
		c-4.1,0-7.4-3.3-7.4-7.4s3.3-7.4,7.4-7.4s7.4,3.3,7.4,7.4S-176.6,151.9-180.6,151.9z"/>
	<path d="M-180.6,161.5c-5,0-9,4.1-9,9s4.1,9,9,9c5,0,9-4.1,9-9S-175.7,161.5-180.6,161.5z M-180.6,178c-4.1,0-7.4-3.3-7.4-7.4
		s3.3-7.4,7.4-7.4s7.4,3.3,7.4,7.4S-176.6,178-180.6,178z"/>
	<path d="M-180.6,187.6c-5,0-9,4.1-9,9c0,5,4.1,9,9,9c5,0,9-4.1,9-9C-171.6,191.6-175.7,187.6-180.6,187.6z M-180.6,204
		c-4.1,0-7.4-3.3-7.4-7.4c0-4.1,3.3-7.4,7.4-7.4s7.4,3.3,7.4,7.4C-173.3,200.7-176.6,204-180.6,204z"/>
	<path d="M-233.4,153.5c5,0,9-4.1,9-9c0-5-4.1-9-9-9c-5,0-9,4.1-9,9C-242.4,149.5-238.4,153.5-233.4,153.5z M-233.4,137.1
		c4.1,0,7.4,3.3,7.4,7.4c0,4.1-3.3,7.4-7.4,7.4c-4.1,0-7.4-3.3-7.4-7.4C-240.8,140.4-237.5,137.1-233.4,137.1z"/>
	<path d="M-233.4,179.7c5,0,9-4.1,9-9s-4.1-9-9-9c-5,0-9,4.1-9,9C-242.5,175.6-238.5,179.7-233.4,179.7z M-233.4,163.2
		c4.1,0,7.4,3.3,7.4,7.4s-3.3,7.4-7.4,7.4s-7.4-3.3-7.4-7.4C-240.9,166.5-237.6,163.2-233.4,163.2z"/>
	<path d="M-224.4,196.7c0-5-4.1-9-9-9c-5,0-9,4.1-9,9s4.1,9,9,9C-228.5,205.7-224.4,201.6-224.4,196.7z M-233.4,204
		c-4.1,0-7.4-3.3-7.4-7.4c0-4.1,3.3-7.4,7.4-7.4s7.4,3.3,7.4,7.4C-226.1,200.7-229.4,204-233.4,204z"/>
	<path d="M-220.9,213.4c-5,0-9,4.1-9,9c0,5,4.1,9,9,9c5,0,9-4.1,9-9C-211.9,217.4-215.9,213.4-220.9,213.4z M-220.9,229.9
		c-4.1,0-7.4-3.3-7.4-7.4s3.3-7.4,7.4-7.4s7.4,3.3,7.4,7.4C-213.5,226.5-216.8,229.9-220.9,229.9z"/>
	<polygon points="-191.5,226.6 -191.5,218.2 -199.5,222.3 	"/>
	<polygon points="-234.3,148.8 -232.1,148.8 -232.1,140.2 -235.6,140.2 -235.6,142.2 -234.3,142.2 	"/>
</g>
<g>
	<circle cx="-230" cy="108.1" r="2.7"/>
	<circle cx="-220.9" cy="108.1" r="2.7"/>
	<circle cx="-211.8" cy="108.1" r="2.7"/>
	<circle cx="-202.8" cy="108.1" r="2.7"/>
	<circle cx="-193.7" cy="108.1" r="2.7"/>
	<circle cx="-184.7" cy="108.1" r="2.7"/>
</g>
<g>
	<rect x="-179" y="107.6" width="70" height="1"/>
</g>
<text transform="matrix(1 0 0 1 -141.3427 105.3599)" fill="#666666" font-family="Montserrat" font-size="11px">stap 5</text>
<g>
	<rect x="-179" y="222.3" width="70" height="1"/>
</g>
<text transform="matrix(1 0 0 1 -141.3427 219.9723)" fill="#666666" font-family="Montserrat" font-size="11px">stap 3</text>
<g>
	<rect x="-317.3" y="144.3" width="70" height="1"/>
</g>
<text transform="matrix(1 0 0 1 -317.3423 142.0482)" fill="#666666" font-family="Montserrat" font-size="11px">stap 4</text>
</svg>
