<?xml version="1.0" encoding="utf-8"?>
<!-- Generator: Adobe Illustrator 19.1.0, SVG Export Plug-In . SVG Version: 6.00 Build 0)  -->
<svg version="1.1" id="Layer_1" xmlns="http://www.w3.org/2000/svg" xmlns:xlink="http://www.w3.org/1999/xlink" x="0px" y="0px"
	 width="61.5px" height="61.5px" viewBox="0 0 61.5 61.5" enable-background="new 0 0 61.5 61.5" xml:space="preserve">
<g>
	<path d="M53.5,19.7V0H8v19.7l-8,6.7v35.1h61.5V26.4L53.5,19.7z M53.5,21.6l6,5.1l-6,4.2V21.6z M9.5,1.5H52V32l-11.1,7.8l-0.6-0.6
		c-4.2-4.2-15-4.2-19.2,0l-0.6,0.6L9.5,32V1.5z M8,21.6v9.3l-6-4.2L8,21.6z M1.5,28.2L8,32.7v0h0l11.5,8l-18,18.1V28.2z M2.6,60
		l19.7-19.8c3.6-3.6,13.5-3.6,17.1,0L58.9,60H2.6z M60,58.9L42,40.8l11.5-8h0v0l6.5-4.6V58.9z"/>
	<rect x="16.8" y="10" width="10" height="1.5"/>
	<rect x="22.8" y="18" width="22" height="1.5"/>
	<rect x="16.8" y="26" width="28" height="1.5"/>
</g>
<g>
	<g>
		<g>
			<polygon fill="#FFF410" points="48.5,6.1 47,6.1 47,4.6 48.5,4.6 			"/>
		</g>
	</g>
	<g>
		<g>
			<path fill="#FFF410" d="M45.7,6.1h-1.5V4.6h1.5L45.7,6.1z M42.9,6.1h-1.5V4.6h1.5L42.9,6.1z M40,6.1h-1.5V4.6H40L40,6.1z
				 M37.2,6.1h-1.5V4.6h1.5L37.2,6.1z M34.3,6.1h-1.5V4.6h1.5L34.3,6.1z"/>
		</g>
	</g>
	<g>
		<g>
			<polygon fill="#FFF410" points="31.5,6.1 30,6.1 30,4.6 31.5,4.6 			"/>
		</g>
	</g>
</g>
</svg>
