<?xml version="1.0" encoding="utf-8"?>
<!-- Generator: Adobe Illustrator 19.1.0, SVG Export Plug-In . SVG Version: 6.00 Build 0)  -->
<svg version="1.1" id="Layer_1" xmlns="http://www.w3.org/2000/svg" xmlns:xlink="http://www.w3.org/1999/xlink" x="0px" y="0px"
	 width="32px" height="32px" viewBox="0 0 32 32" style="enable-background:new 0 0 32 32;" xml:space="preserve">
<g>
	<path d="M16,0C7.2,0,0,7.2,0,16s7.2,16,16,16c8.8,0,16-7.2,16-16S24.8,0,16,0z M16,30C8.3,30,2,23.7,2,16S8.3,2,16,2
		c7.7,0,14,6.3,14,14S23.7,30,16,30z"/>
	<path d="M17.9,9H19c0.6,0,1-0.4,1-1s-0.4-1-1-1h-1.1c-4.3,0-7.9,3-8.8,7H8c-0.6,0-1,0.4-1,1s0.4,1,1,1h0.9c0,0.3,0,0.7,0.1,1
		c-0.5,0-1,0.4-1,1c0,0.6,0.4,1,1,1h0.5c1.2,3.5,4.6,6,8.5,6H19c0.6,0,1-0.4,1-1s-0.4-1-1-1h-1.1c-2.8,0-5.2-1.6-6.3-4H16
		c0.6,0,1-0.4,1-1s-0.4-1-1-1h-5c0-0.3-0.1-0.7-0.1-1H18c0.6,0,1-0.4,1-1s-0.4-1-1-1h-6.8C12.1,11.1,14.8,9,17.9,9z"/>
</g>
</svg>
