<?xml version="1.0" encoding="utf-8"?>
<!-- Generator: Adobe Illustrator 19.1.0, SVG Export Plug-In . SVG Version: 6.00 Build 0)  -->
<svg version="1.1" id="Layer_1" xmlns="http://www.w3.org/2000/svg" xmlns:xlink="http://www.w3.org/1999/xlink" x="0px" y="0px"
	 width="246.7px" height="463.2px" viewBox="0 0 246.7 463.2" enable-background="new 0 0 246.7 463.2" xml:space="preserve">
<g>
	<g>
		<path d="M123.4,329.3c-6.5,0-26.7-4-42.5-22.4C52,275,54.3,169.9,60.3,139.3c1.5-7.8,3-9.5,4.3-10.1c8.8-4.2,46-10.4,58.7-10.4
			c12.7,0,50,6.2,58.7,10.4l0,0c1.3,0.6,2.8,2.3,4.3,10.1c6,30.6,8.3,135.7-20.6,167.7C150.1,325.3,129.8,329.3,123.4,329.3z
			 M66.5,132.7c-2.8,3-7.1,34.2-5.7,75.2c2.2,64.1,15.4,87.9,23.1,96.4c13.2,15.3,31.2,21,39.5,21c8.3,0,26.3-5.7,39.5-21
			c7.7-8.5,20.9-32.3,23.1-96.4c1.4-41-2.9-72.3-5.7-75.2c-7.9-3.7-43.8-10-56.9-10C110.3,122.8,74.4,129.1,66.5,132.7z"/>
	</g>
	<g>
		<path d="M154.5,179H92.2c-5.6,0-7.7-4.6-7.7-7.7v-12.9c0-5.6,4.6-7.7,7.7-7.7h62.3c5.6,0,7.7,4.6,7.7,7.7v12.9
			C162.2,177,157.6,179,154.5,179z M92.2,154.8c-0.9,0-3.7,0.3-3.7,3.7v12.9c0,0.8,0.3,3.7,3.7,3.7h62.3c0.8,0,3.7-0.3,3.7-3.7
			v-12.9c0-0.8-0.3-3.7-3.7-3.7H92.2z"/>
	</g>
	<g>
		<path d="M123.4,214.7c-5.5,0-9.9-4.5-9.9-9.9c0-5.5,4.5-9.9,9.9-9.9s9.9,4.5,9.9,9.9C133.3,210.2,128.8,214.7,123.4,214.7z
			 M123.4,198.8c-3.3,0-5.9,2.7-5.9,5.9c0,3.3,2.7,5.9,5.9,5.9c3.3,0,5.9-2.7,5.9-5.9C129.3,201.5,126.6,198.8,123.4,198.8z"/>
	</g>
	<g>
		<path d="M123.4,243.2c-5.5,0-9.9-4.5-9.9-9.9c0-5.5,4.5-9.9,9.9-9.9s9.9,4.5,9.9,9.9C133.3,238.8,128.8,243.2,123.4,243.2z
			 M123.4,227.4c-3.3,0-5.9,2.7-5.9,5.9c0,3.3,2.7,5.9,5.9,5.9c3.3,0,5.9-2.7,5.9-5.9C129.3,230,126.6,227.4,123.4,227.4z"/>
	</g>
	<g>
		<path d="M123.4,271.8c-5.5,0-9.9-4.5-9.9-9.9s4.5-9.9,9.9-9.9s9.9,4.5,9.9,9.9S128.8,271.8,123.4,271.8z M123.4,255.9
			c-3.3,0-5.9,2.7-5.9,5.9s2.7,5.9,5.9,5.9c3.3,0,5.9-2.7,5.9-5.9S126.6,255.9,123.4,255.9z"/>
	</g>
	<g>
		<path d="M137.1,300c-5.5,0-9.9-4.5-9.9-9.9s4.5-9.9,9.9-9.9s9.9,4.5,9.9,9.9S142.6,300,137.1,300z M137.1,284.2
			c-3.3,0-5.9,2.7-5.9,5.9s2.7,5.9,5.9,5.9s5.9-2.7,5.9-5.9S140.4,284.2,137.1,284.2z"/>
	</g>
	<g>
		<path d="M152.3,214.7c-5.5,0-9.9-4.5-9.9-9.9c0-5.5,4.5-9.9,9.9-9.9c5.5,0,9.9,4.5,9.9,9.9C162.2,210.2,157.7,214.7,152.3,214.7z
			 M152.3,198.8c-3.3,0-5.9,2.7-5.9,5.9c0,3.3,2.7,5.9,5.9,5.9s5.9-2.7,5.9-5.9C158.2,201.5,155.5,198.8,152.3,198.8z"/>
	</g>
	<g>
		<path d="M152.3,243.2c-5.5,0-9.9-4.5-9.9-9.9c0-5.5,4.5-9.9,9.9-9.9c5.5,0,9.9,4.5,9.9,9.9C162.2,238.8,157.7,243.2,152.3,243.2z
			 M152.3,227.4c-3.3,0-5.9,2.7-5.9,5.9c0,3.3,2.7,5.9,5.9,5.9s5.9-2.7,5.9-5.9C158.2,230,155.5,227.4,152.3,227.4z"/>
	</g>
	<g>
		<path d="M152.3,271.8c-5.5,0-9.9-4.5-9.9-9.9s4.5-9.9,9.9-9.9c5.5,0,9.9,4.5,9.9,9.9S157.7,271.8,152.3,271.8z M152.3,255.9
			c-3.3,0-5.9,2.7-5.9,5.9s2.7,5.9,5.9,5.9s5.9-2.7,5.9-5.9S155.5,255.9,152.3,255.9z"/>
	</g>
	<g>
		<path d="M94.4,214.7c-5.5,0-9.9-4.5-9.9-9.9c0-5.5,4.5-9.9,9.9-9.9c5.5,0,9.9,4.5,9.9,9.9C104.3,210.2,99.9,214.7,94.4,214.7z
			 M94.4,198.8c-3.3,0-5.9,2.7-5.9,5.9c0,3.3,2.7,5.9,5.9,5.9c3.3,0,5.9-2.7,5.9-5.9C100.3,201.5,97.6,198.8,94.4,198.8z"/>
	</g>
	<g>
		<path d="M94.4,243.2c-5.5,0-9.9-4.5-9.9-9.9c0-5.5,4.5-9.9,9.9-9.9c5.5,0,9.9,4.5,9.9,9.9C104.3,238.8,99.9,243.2,94.4,243.2z
			 M94.4,227.4c-3.3,0-5.9,2.7-5.9,5.9c0,3.3,2.7,5.9,5.9,5.9c3.3,0,5.9-2.7,5.9-5.9C100.3,230,97.6,227.4,94.4,227.4z"/>
	</g>
	<g>
		<path d="M94.4,271.8c-5.5,0-9.9-4.5-9.9-9.9s4.5-9.9,9.9-9.9c5.5,0,9.9,4.5,9.9,9.9S99.9,271.8,94.4,271.8z M94.4,255.9
			c-3.3,0-5.9,2.7-5.9,5.9s2.7,5.9,5.9,5.9c3.3,0,5.9-2.7,5.9-5.9S97.6,255.9,94.4,255.9z"/>
	</g>
	<g>
		<path d="M108.1,300c-5.5,0-9.9-4.5-9.9-9.9s4.5-9.9,9.9-9.9c5.5,0,9.9,4.5,9.9,9.9S113.6,300,108.1,300z M108.1,284.2
			c-3.3,0-5.9,2.7-5.9,5.9s2.7,5.9,5.9,5.9c3.3,0,5.9-2.7,5.9-5.9S111.4,284.2,108.1,284.2z"/>
	</g>
	<g>
		<path d="M225.1,463.2H21.7C8.9,463.2,0,451.6,0,435V28.2C0,11.6,8.9,0,21.7,0h203.4c12.8,0,21.7,11.6,21.7,28.2V435
			C246.7,451.6,237.8,463.2,225.1,463.2z M21.7,4C11.3,4,4,14,4,28.2V435c0,14.3,7.3,24.2,17.7,24.2h203.4c10.4,0,17.7-10,17.7-24.2
			V28.2C242.7,14,235.5,4,225.1,4H21.7z"/>
	</g>
	<g>
		<path d="M109.4,27.7c0,0-2,0-2,2v3.2c0,0,0,2,2,2h27.9c0,0,2,0,2-2v-3.2c0,0,0-2-2-2H109.4z"/>
	</g>
</g>
<g>
	<path d="M235.3,401.1H11.5V50.6h223.8V401.1z M15.5,397.1h215.8V54.6H15.5V397.1z"/>
</g>
<g>
	<g>
		<path d="M123.4,450.7c-11.2,0-20.4-9.1-20.4-20.4c0-11.2,9.1-20.4,20.4-20.4s20.4,9.1,20.4,20.4
			C143.7,441.5,134.6,450.7,123.4,450.7z M123.4,413.9c-9,0-16.4,7.3-16.4,16.4c0,9,7.3,16.4,16.4,16.4c9,0,16.4-7.3,16.4-16.4
			C139.7,421.3,132.4,413.9,123.4,413.9z"/>
	</g>
</g>
<g>
	<path d="M102.3,163c0.6,0.5,0.8,1.2,0.8,2.1c0,0.9-0.3,1.6-0.8,2.2c-0.5,0.5-1.4,0.8-2.5,0.8h-2v-5.8h2.1
		C100.9,162.2,101.7,162.5,102.3,163z M101.3,166.5c0.3-0.3,0.5-0.7,0.5-1.3c0-0.6-0.2-1-0.5-1.3c-0.3-0.3-0.8-0.5-1.5-0.5h-0.7v3.5
		h0.8C100.6,166.9,101,166.8,101.3,166.5z"/>
	<path d="M106,162.2h1.3v5.8H106V162.2z"/>
	<path d="M114.2,165.1h1.3v2.1c-0.6,0.6-1.4,1-2.4,1c-0.9,0-1.6-0.3-2.2-0.9c-0.6-0.6-0.9-1.3-0.9-2.1s0.3-1.6,0.9-2.2
		c0.6-0.6,1.3-0.9,2.1-0.9s1.6,0.3,2.2,0.8l-0.7,1c-0.3-0.2-0.5-0.4-0.7-0.5c-0.2-0.1-0.5-0.1-0.7-0.1c-0.5,0-0.9,0.2-1.3,0.5
		c-0.3,0.3-0.5,0.8-0.5,1.3c0,0.6,0.2,1,0.5,1.3c0.3,0.3,0.7,0.5,1.2,0.5c0.5,0,0.8-0.1,1.1-0.3V165.1z"/>
	<path d="M118.5,162.2h1.3v5.8h-1.3V162.2z"/>
	<path d="M127,162.7c0.4,0.3,0.6,0.9,0.6,1.6s-0.2,1.2-0.6,1.6c-0.4,0.3-1.1,0.5-1.9,0.5h-0.8v1.6H123v-5.8h2.1
		C125.9,162.2,126.6,162.4,127,162.7z M126,165c0.2-0.2,0.2-0.4,0.2-0.8c0-0.3-0.1-0.6-0.3-0.7c-0.2-0.1-0.5-0.2-0.9-0.2h-0.7v2h0.9
		C125.6,165.3,125.9,165.2,126,165z"/>
	<path d="M134.1,168.1l-0.5-1.3h-2.4l-0.5,1.3h-1.4l2.5-5.8h1.3l2.5,5.8H134.1z M132.4,164l-0.7,1.7h1.5L132.4,164z"/>
	<path d="M139.3,163.4c-0.1,0.1-0.2,0.2-0.2,0.4c0,0.2,0.1,0.3,0.2,0.4c0.2,0.1,0.5,0.2,1.1,0.4c0.6,0.1,1,0.3,1.3,0.6
		s0.5,0.7,0.5,1.2c0,0.5-0.2,0.9-0.6,1.3s-0.9,0.5-1.5,0.5c-0.9,0-1.8-0.3-2.5-1l0.8-1c0.6,0.6,1.2,0.8,1.7,0.8
		c0.2,0,0.4-0.1,0.6-0.2c0.1-0.1,0.2-0.2,0.2-0.4c0-0.2-0.1-0.3-0.2-0.4c-0.1-0.1-0.4-0.2-0.9-0.3c-0.7-0.2-1.2-0.4-1.5-0.6
		c-0.3-0.3-0.5-0.7-0.5-1.2c0-0.6,0.2-1,0.6-1.3s0.9-0.5,1.5-0.5c0.4,0,0.8,0.1,1.2,0.2c0.4,0.1,0.7,0.3,1,0.6l-0.7,1
		c-0.5-0.4-1-0.6-1.6-0.6C139.6,163.2,139.5,163.3,139.3,163.4z"/>
	<path d="M146.4,163.4c-0.1,0.1-0.2,0.2-0.2,0.4c0,0.2,0.1,0.3,0.2,0.4c0.2,0.1,0.5,0.2,1.1,0.4c0.6,0.1,1,0.3,1.3,0.6
		s0.5,0.7,0.5,1.2c0,0.5-0.2,0.9-0.6,1.3s-0.9,0.5-1.5,0.5c-0.9,0-1.8-0.3-2.5-1l0.8-1c0.6,0.6,1.2,0.8,1.7,0.8
		c0.2,0,0.4-0.1,0.6-0.2c0.1-0.1,0.2-0.2,0.2-0.4c0-0.2-0.1-0.3-0.2-0.4c-0.1-0.1-0.4-0.2-0.9-0.3c-0.7-0.2-1.2-0.4-1.5-0.6
		c-0.3-0.3-0.5-0.7-0.5-1.2c0-0.6,0.2-1,0.6-1.3s0.9-0.5,1.5-0.5c0.4,0,0.8,0.1,1.2,0.2c0.4,0.1,0.7,0.3,1,0.6l-0.7,1
		c-0.5-0.4-1-0.6-1.6-0.6C146.7,163.2,146.5,163.3,146.4,163.4z"/>
</g>
</svg>
