<?xml version="1.0" encoding="utf-8"?>
<!-- Generator: Adobe Illustrator 19.1.0, SVG Export Plug-In . SVG Version: 6.00 Build 0)  -->
<svg version="1.1" id="Layer_1" xmlns="http://www.w3.org/2000/svg" xmlns:xlink="http://www.w3.org/1999/xlink" x="0px" y="0px"
	 width="28px" height="32px" viewBox="0 0 28 32" style="enable-background:new 0 0 28 32;" xml:space="preserve">
<g>
	<path d="M0,0v12c0,7,4.2,15.9,13.6,19.8L14,32l0.4-0.2C23.8,28,28,19.1,28,12V0H0z M26,12c0,4.7-2.5,13.7-12,17.8
		C4.5,25.7,2,16.7,2,12V2h24V12z"/>
	<path d="M13,19.4l8.7-8.7c0.4-0.4,0.4-1,0-1.4s-1-0.4-1.4,0L13,16.6l-3.8-3.8c-0.4-0.4-1-0.4-1.4,0s-0.4,1,0,1.4L13,19.4z"/>
</g>
</svg>
