<?xml version="1.0" encoding="utf-8"?>
<!-- Generator: Adobe Illustrator 19.1.0, SVG Export Plug-In . SVG Version: 6.00 Build 0)  -->
<svg version="1.1" id="Layer_1" xmlns="http://www.w3.org/2000/svg" xmlns:xlink="http://www.w3.org/1999/xlink" x="0px" y="0px"
	 width="142.9px" height="212.4px" viewBox="0 0 142.9 212.4" style="enable-background:new 0 0 142.9 212.4;" xml:space="preserve"
	>
<g>
	<g>
		<path d="M129.2,76c0-0.2,0-0.4,0-0.6V57.8C129.3,25.9,103.3,0,71.5,0C39.6,0,13.7,25.9,13.7,57.8v17.6c0,0.2,0,0.4,0,0.6
			C6.1,76.1,0,82.3,0,89.9v108.5c0,7.7,6.3,14,14,14h114.9c7.7,0,14-6.3,14-14V89.9C142.9,82.3,136.8,76.1,129.2,76L129.2,76z
			 M25.7,57.8C25.7,32.5,46.2,12,71.5,12s45.8,20.5,45.8,45.8v17.6c0,0.2,0,0.4,0,0.6H25.6c0-0.2,0-0.4,0-0.6V57.8z M130.9,198.4
			c0,1.1-0.9,2-2,2H14c-1.1,0-2-0.9-2-2V89.9c0-1.1,0.9-2,2-2h114.9c1.1,0,2,0.9,2,2V198.4z M130.9,198.4"/>
	</g>
	<path d="M81.5,117.4h-20c-7.3,0-13.2,5.9-13.2,13.2v9.1c0,5.4,2.5,12.4,7.3,15.4c0.8,0.6,2.4,3.6,2.4,6.6v5.4
		c0,7.3,5.9,13.2,13.2,13.2h0.6c7.3,0,13.2-5.9,13.2-13.2v-5.4c0-3,1.6-6.1,2.4-6.6c4.8-3,7.3-10,7.3-15.4v-9.1
		C94.7,123.3,88.7,117.4,81.5,117.4L81.5,117.4z M84.3,139.7c0,3-1.6,6.1-2.4,6.6c-4.8,3-7.3,10-7.3,15.4v5.4c0,1.5-1.3,2.8-2.8,2.8
		h-0.6c-1.5,0-2.8-1.3-2.8-2.8v-5.4c0-5.4-2.5-12.4-7.3-15.4c-0.8-0.6-2.4-3.6-2.4-6.6v-9.1c0-1.5,1.3-2.8,2.8-2.8h20
		c1.5,0,2.8,1.3,2.8,2.8V139.7z M84.3,139.7"/>
</g>
</svg>
