<?xml version="1.0" encoding="utf-8"?>
<!-- Generator: Adobe Illustrator 19.1.0, SVG Export Plug-In . SVG Version: 6.00 Build 0)  -->
<svg version="1.1" id="Laag_1" xmlns="http://www.w3.org/2000/svg" xmlns:xlink="http://www.w3.org/1999/xlink" x="0px" y="0px"
	 width="393px" height="276px" viewBox="0 0 393 276" style="enable-background:new 0 0 393 276;" xml:space="preserve">
<g>
	<path d="M138,276c26.2,0,51.7-7.4,73.7-21.3c21.4-13.6,38.7-32.7,50-55.4l-21.5-10.7C220.7,227.7,181.6,252,138,252
		c-62.9,0-114-51.1-114-114C24,75.1,75.1,24,138,24c43.6,0,82.7,24.3,102.1,63.3l21.5-10.7c-11.3-22.7-28.5-41.8-50-55.4
		C189.7,7.4,164.2,0,138,0C61.9,0,0,61.9,0,138C0,214.1,61.9,276,138,276L138,276z M138,276"/>
	<path d="M138,126v24h209l-27.5,27.5l17,17L393,138l-56.5-56.5l-17,17L347,126H138z M138,126"/>
</g>
</svg>
