<?xml version="1.0" encoding="utf-8"?>
<!-- Generator: Adobe Illustrator 19.1.0, SVG Export Plug-In . SVG Version: 6.00 Build 0)  -->
<svg version="1.1" id="Isolation_Mode" xmlns="http://www.w3.org/2000/svg" xmlns:xlink="http://www.w3.org/1999/xlink" x="0px"
	 y="0px" width="45px" height="30.5px" viewBox="0 0 45 30.5" style="enable-background:new 0 0 45 30.5;" xml:space="preserve">
<style type="text/css">
	.st0{fill:#202020;}
</style>
<g>
	<path class="st0" d="M41.8,0H3.2C1.5,0,0,1.5,0,3.2v24c0,1.8,1.5,3.2,3.2,3.2h38.5c1.8,0,3.3-1.5,3.3-3.2v-24C45,1.5,43.6,0,41.8,0
		z M3.2,2h38.5C42.5,2,43,2.6,43,3.2v4.2H2V3.2C2,2.6,2.6,2,3.2,2z M41.8,28.5H3.2c-0.7,0-1.2-0.6-1.2-1.2V9.5h41v17.8
		C43,27.9,42.5,28.5,41.8,28.5z"/>
	<path class="st0" d="M17,13.5H7c-0.6,0-1,0.4-1,1s0.4,1,1,1h10c0.6,0,1-0.4,1-1S17.6,13.5,17,13.5z"/>
	<path class="st0" d="M16.6,19.5H7c-0.6,0-1,0.4-1,1s0.4,1,1,1h9.6c0.6,0,1-0.4,1-1S17.1,19.5,16.6,19.5z"/>
	<path class="st0" d="M35.2,12.2c-1.2-0.1-2.4,0.2-3.5,0.9c-0.8-0.6-1.8-0.9-2.9-0.9c-2.9,0-5.2,2.4-5.2,5.3s2.4,5.3,5.2,5.3
		c1.1,0,2.1-0.3,3-0.9c0.7,0.5,1.5,0.8,2.4,0.9c0.2,0,0.3,0,0.5,0c1.2,0,2.4-0.4,3.3-1.2c1.1-0.9,1.8-2.2,1.9-3.6
		c0.1-1.4-0.3-2.8-1.2-3.9C37.8,13,36.6,12.3,35.2,12.2z M25.6,17.5c0-1.8,1.5-3.3,3.2-3.3c1.8,0,3.2,1.5,3.2,3.3
		c0,1.8-1.5,3.3-3.2,3.3C27,20.8,25.6,19.3,25.6,17.5z M37.9,17.8c-0.1,0.9-0.5,1.7-1.2,2.2c-0.7,0.6-1.5,0.8-2.4,0.7
		c-0.4,0-0.8-0.2-1.1-0.3c0.5-0.8,0.8-1.8,0.8-2.9c0-1.1-0.3-2.1-0.9-3c0.6-0.3,1.2-0.4,1.8-0.4c0.9,0.1,1.6,0.5,2.2,1.2
		C37.7,16,38,16.9,37.9,17.8z"/>
</g>
</svg>
