<?xml version="1.0" encoding="utf-8"?>
<!-- Generator: Adobe Illustrator 19.1.0, SVG Export Plug-In . SVG Version: 6.00 Build 0)  -->
<svg version="1.1" id="Layer_1" xmlns="http://www.w3.org/2000/svg" xmlns:xlink="http://www.w3.org/1999/xlink" x="0px" y="0px"
	 width="32px" height="28.8px" viewBox="0 0 32 28.8" style="enable-background:new 0 0 32 28.8;" xml:space="preserve">
<g>
	<path d="M0,0v22h9v6.8l7.4-6.8H32V0H0z M30,20H15.6L11,24.2V20H2V2h28V20z"/>
	<path d="M7,7h18c0.6,0,1-0.4,1-1s-0.4-1-1-1H7C6.4,5,6,5.4,6,6S6.4,7,7,7z"/>
	<path d="M7,12h18c0.6,0,1-0.4,1-1s-0.4-1-1-1H7c-0.6,0-1,0.4-1,1S6.4,12,7,12z"/>
	<path d="M7,17h12c0.6,0,1-0.4,1-1c0-0.6-0.4-1-1-1H7c-0.6,0-1,0.4-1,1C6,16.6,6.4,17,7,17z"/>
</g>
</svg>
