<?xml version="1.0" encoding="utf-8"?>
<!-- Generator: Adobe Illustrator 19.1.0, SVG Export Plug-In . SVG Version: 6.00 Build 0)  -->
<svg version="1.1" id="Layer_1" xmlns="http://www.w3.org/2000/svg" xmlns:xlink="http://www.w3.org/1999/xlink" x="0px" y="0px"
	 width="22px" height="32px" viewBox="0 0 22 32" style="enable-background:new 0 0 22 32;" xml:space="preserve">
<path d="M20.1,13.6c-0.7-0.7-3.2-3.2-4.1-4.1V2c0-1.1-0.9-2-2-2H2C0.9,0,0,0.9,0,2v19c0,1.1,0.9,2,2,2h3c0.1,1.5,0.5,3.3,1.8,5.3
	C8,30.2,8,30.7,8,31c0,0.5,0.4,1,1,1c0,0,0,0,0,0c0.5,0,1-0.5,1-1c0-0.7-0.1-1.5-1.5-3.7c-1-1.6-1.3-3-1.4-4.2h2.1
	c0.4,1.5,1.3,3.2,3.3,4.8c0.2,0.2,0.4,0.2,0.6,0.2c0.3,0,0.6-0.1,0.8-0.4c0.3-0.4,0.3-1.1-0.1-1.4C10,23.3,10.9,20,11,19.9l0.2-0.6
	l-4.7-4.7c-0.3-0.3-0.4-0.7-0.4-1s0.2-0.8,0.4-1c0.6-0.6,1.5-0.6,2.1,0l7.9,7.8c0.4,0.4,1,0.4,1.4,0s0.4-1,0-1.4L16,17.1v-4.7
	c1,1,2.2,2.2,2.7,2.7c1,1,1.4,2.3,1.4,5c0,4.3,0,11,0,11l2,0c0,0,0-6.7,0-11C22,17.3,21.7,15.3,20.1,13.6z M5,11
	c-0.7,0.7-1,1.5-1,2.5s0.4,1.8,1,2.5l3.9,3.9c0,0.3-0.1,0.7-0.1,1.1H6c0,0,0,0,0,0s0,0,0,0H2V2h7v8.4C7.7,9.7,6.1,9.9,5,11z
	 M11,12.1V2h3v13.1L11,12.1z"/>
</svg>
