<?xml version="1.0" encoding="utf-8"?>
<!-- Generator: Adobe Illustrator 19.1.0, SVG Export Plug-In . SVG Version: 6.00 Build 0)  -->
<svg version="1.1" id="Layer_1" xmlns="http://www.w3.org/2000/svg" xmlns:xlink="http://www.w3.org/1999/xlink" x="0px" y="0px"
	 width="46.3px" height="41px" viewBox="0 0 46.3 41" style="enable-background:new 0 0 46.3 41;" xml:space="preserve">
<style type="text/css">
	.st0{fill:#202020;}
</style>
<g>
	<path class="st0" d="M45.9,23.9c-0.4-0.4-0.9-0.7-1.6-0.7c-0.3,0-1-0.1-1.3-0.3c-0.1-0.2-0.2-0.5-0.3-0.8c-0.4-1.2-1.1-3.1-2.1-4.7
		c0.9-1.9,2.5-3,2.5-3l1.5-0.9L43,12.7c-2.2-1.1-4.8-2.1-9.3-1.6c-0.8-0.2-1.7-0.4-2.7-0.5c0.6-1,1-2.3,1-3.6c0-3.9-3.1-7-7-7
		s-7,3.1-7,7c0,1.3,0.3,2.4,0.9,3.4c-1.5,0.3-2.8,0.8-4,1.4c-4.7,2.5-7.1,6.5-7.4,12.1c-0.6-0.1-1.4-0.2-2.1-0.2
		c-0.7-0.9-1.9-1.9-4.1-2.7c-0.5-0.2-1.1,0.1-1.3,0.6s0.1,1.1,0.6,1.3c0.8,0.3,1.4,0.6,2,1c-1.4,0.3-2.4,1-2.6,2.5
		c-0.1,1,0.2,2,1,2.6c0.6,0.4,1.2,0.7,2,0.7c0.4,0,0.8-0.1,1.2-0.2c1-0.4,2-1.7,2-3.3c0-0.1,0-0.2,0-0.3c0.4,0,0.8,0.1,1.2,0.1
		c0,0,0.1,0,0.1,0c0.2,3.1,1.6,9.2,8.4,14.8l0.3,0.2H23v-2.7c1.4,0,3.8,0.1,5.1,0.1c0.7,1.1,1.6,2.2,1.6,2.3L30,41h6.5v-4.8
		c0.8-0.7,2.8-2.5,3.9-3.7c1.7,0,4.8-1,5.8-7C46.4,24.9,46.3,24.3,45.9,23.9z M3.5,27.5c-0.4,0.2-0.9,0.1-1.2-0.1
		C2.1,27.2,2,27,2,26.6c0.1-0.7,1.1-0.9,2.2-0.9c0,0.1,0.1,0.3,0.1,0.4C4.3,26.9,3.8,27.5,3.5,27.5z M25.1,2c2.8,0,5,2.2,5,5
		c0,2.8-2.2,5-5,5s-5-2.2-5-5C20.1,4.2,22.3,2,25.1,2z M40.1,30.5l-0.5,0l-0.3,0.4c-1.1,1.3-4.4,4.2-4.4,4.2l-0.3,0.3V39h-3.6
		c-0.4-0.5-1-1.3-1.4-2.1l-0.3-0.6h-0.6c-1.1,0-6.6-0.2-6.6-0.2l-1,0V39h-4.1c-6.7-5.6-7.4-11.6-7.4-14c0-5.4,2-9,6.4-11.3
		c1.3-0.7,2.8-1.2,4.5-1.4c0.7,0.6,1.6,1.1,2.5,1.4c-1,0.1-2,0.4-2.9,0.7c-0.5,0.2-0.8,0.7-0.6,1.3c0.1,0.4,0.5,0.7,0.9,0.7
		c0.1,0,0.2,0,0.3-0.1c2.8-1,6-1,8.9-0.1c0.5,0.2,1.1-0.1,1.3-0.6c0.2-0.5-0.1-1.1-0.6-1.3c-0.9-0.3-1.9-0.5-2.9-0.6
		c0.9-0.3,1.6-0.7,2.3-1.3c1.6,0.2,2.9,0.5,4,0.7l0.2,0l0.2,0c3-0.4,5.1,0,6.9,0.7c-0.8,0.8-1.7,1.9-2.2,3.3l-0.2,0.5l0.3,0.4
		c1,1.6,1.8,3.6,2.2,4.8c0.3,0.9,0.4,1.2,0.7,1.5c0.6,0.7,2.2,0.9,2.8,0.9C43.9,27.4,42.9,30.7,40.1,30.5z"/>
	<path class="st0" d="M35.5,20.3c-1,0-1.8,0.8-1.8,1.8c0,1,0.8,1.8,1.8,1.8s1.8-0.8,1.8-1.8C37.3,21,36.5,20.3,35.5,20.3z M35.3,22
		c0-0.1,0.1-0.2,0.2-0.2s0.2,0.1,0.2,0.2C35.8,22.3,35.3,22.3,35.3,22z"/>
</g>
</svg>
