<?xml version="1.0" encoding="utf-8"?>
<!-- Generator: Adobe Illustrator 19.1.0, SVG Export Plug-In . SVG Version: 6.00 Build 0)  -->
<svg version="1.1" id="Layer_1" xmlns="http://www.w3.org/2000/svg" xmlns:xlink="http://www.w3.org/1999/xlink" x="0px" y="0px"
	 width="294.1px" height="463.2px" viewBox="0 0 294.1 463.2" enable-background="new 0 0 294.1 463.2" xml:space="preserve">
<g>
	<g>
		<path d="M147,463.2c-14.1,0-58.4-8.8-93.2-48.9C19.2,376.3,6.7,292.6,2.3,229.1c-5.2-75.2-0.9-150,6-185.2
			c3.3-16.9,6.4-20.1,8.4-21.1C34.8,14.3,116.4,0,147,0s112.3,14.3,130.3,22.9c2,1,5.1,4.2,8.4,21.1c6.9,35.1,11.2,110,6,185.2
			c-4.4,63.5-16.9,147.2-51.6,185.3C205.5,454.4,161.2,463.2,147,463.2z M147,4C117.5,4,35.7,18.3,18.4,26.5
			c-0.3,0.1-3,1.8-6.2,18.2C5.4,79.6,1.1,154,6.3,228.8c4.3,62.9,16.6,145.6,50.6,182.9c17.5,20.2,37.3,31.5,50.8,37.5
			c16.7,7.4,31.3,10,39.3,10c18.9,0,60.2-12.9,90.1-47.5c34-37.3,46.3-120,50.6-182.9c5.2-74.8,0.9-149.2-6-184.1
			c-3.2-16.4-5.9-18.1-6.2-18.2C258.3,18.3,176.6,4,147,4z"/>
	</g>
	<g>
		<path d="M219.1,132.5H75c-10.6,0-13.3-8.7-13.3-13.3V83.7c0-10.6,8.7-13.3,13.3-13.3h144.2c6.9,0,10.2,3.7,11.7,6.8
			c1.6,3.2,1.6,6.4,1.6,6.6v35.4C232.4,129.7,223.7,132.5,219.1,132.5z M75,74.4c-1,0-9.3,0.3-9.3,9.3v35.4c0,0.9,0.3,9.3,9.3,9.3
			h144.2c0.9,0,9.3-0.3,9.3-9.3V83.7c0-0.9-0.3-9.3-9.3-9.3H75z"/>
	</g>
	<g>
		<path d="M147,211c-12,0-21.8-9.8-21.8-21.8s9.8-21.8,21.8-21.8c12,0,21.8,9.8,21.8,21.8S159.1,211,147,211z M147,171.3
			c-9.8,0-17.8,8-17.8,17.8s8,17.8,17.8,17.8s17.8-8,17.8-17.8S156.9,171.3,147,171.3z"/>
	</g>
	<g>
		<path d="M147,273.8c-12,0-21.8-9.8-21.8-21.8c0-12,9.8-21.8,21.8-21.8c12,0,21.8,9.8,21.8,21.8C168.9,264,159.1,273.8,147,273.8z
			 M147,234.1c-9.8,0-17.8,8-17.8,17.8c0,9.8,8,17.8,17.8,17.8s17.8-8,17.8-17.8C164.9,242.1,156.9,234.1,147,234.1z"/>
	</g>
	<g>
		<path d="M147,336.6c-12,0-21.8-9.8-21.8-21.8s9.8-21.8,21.8-21.8c12,0,21.8,9.8,21.8,21.8S159.1,336.6,147,336.6z M147,296.9
			c-9.8,0-17.8,8-17.8,17.8c0,9.8,8,17.8,17.8,17.8s17.8-8,17.8-17.8C164.9,304.9,156.9,296.9,147,296.9z"/>
	</g>
	<g>
		<path d="M177.3,398.8c-12,0-21.8-9.8-21.8-21.8s9.8-21.8,21.8-21.8c12,0,21.8,9.8,21.8,21.8S189.3,398.8,177.3,398.8z
			 M177.3,359.1c-9.8,0-17.8,8-17.8,17.8c0,9.8,8,17.8,17.8,17.8s17.8-8,17.8-17.8C195.1,367.1,187.1,359.1,177.3,359.1z"/>
	</g>
	<g>
		<path d="M210.6,211c-12,0-21.8-9.8-21.8-21.8s9.8-21.8,21.8-21.8s21.8,9.8,21.8,21.8S222.6,211,210.6,211z M210.6,171.3
			c-9.8,0-17.8,8-17.8,17.8s8,17.8,17.8,17.8s17.8-8,17.8-17.8S220.4,171.3,210.6,171.3z"/>
	</g>
	<g>
		<path d="M210.6,273.8c-12,0-21.8-9.8-21.8-21.8c0-12,9.8-21.8,21.8-21.8s21.8,9.8,21.8,21.8C232.4,264,222.6,273.8,210.6,273.8z
			 M210.6,234.1c-9.8,0-17.8,8-17.8,17.8c0,9.8,8,17.8,17.8,17.8s17.8-8,17.8-17.8C228.4,242.1,220.4,234.1,210.6,234.1z"/>
	</g>
	<g>
		<path d="M210.6,336.6c-12,0-21.8-9.8-21.8-21.8s9.8-21.8,21.8-21.8s21.8,9.8,21.8,21.8S222.6,336.6,210.6,336.6z M210.6,296.9
			c-9.8,0-17.8,8-17.8,17.8c0,9.8,8,17.8,17.8,17.8s17.8-8,17.8-17.8C228.4,304.9,220.4,296.9,210.6,296.9z"/>
	</g>
	<g>
		<path d="M83.3,211c-12,0-21.8-9.8-21.8-21.8s9.8-21.8,21.8-21.8c12,0,21.8,9.8,21.8,21.8S95.3,211,83.3,211z M83.3,171.3
			c-9.8,0-17.8,8-17.8,17.8s8,17.8,17.8,17.8c9.8,0,17.8-8,17.8-17.8S93.1,171.3,83.3,171.3z"/>
	</g>
	<g>
		<path d="M83.3,273.8c-12,0-21.8-9.8-21.8-21.8c0-12,9.8-21.8,21.8-21.8c12,0,21.8,9.8,21.8,21.8C105.1,264,95.3,273.8,83.3,273.8z
			 M83.3,234.1c-9.8,0-17.8,8-17.8,17.8c0,9.8,8,17.8,17.8,17.8c9.8,0,17.8-8,17.8-17.8C101.1,242.1,93.1,234.1,83.3,234.1z"/>
	</g>
	<g>
		<path d="M83.3,336.6c-12,0-21.8-9.8-21.8-21.8s9.8-21.8,21.8-21.8c12,0,21.8,9.8,21.8,21.8S95.3,336.6,83.3,336.6z M83.3,296.9
			c-9.8,0-17.8,8-17.8,17.8c0,9.8,8,17.8,17.8,17.8c9.8,0,17.8-8,17.8-17.8C101.1,304.9,93.1,296.9,83.3,296.9z"/>
	</g>
	<g>
		<path d="M113.5,398.8c-12,0-21.8-9.8-21.8-21.8s9.8-21.8,21.8-21.8c12,0,21.8,9.8,21.8,21.8S125.6,398.8,113.5,398.8z
			 M113.5,359.1c-9.8,0-17.8,8-17.8,17.8c0,9.8,8,17.8,17.8,17.8c9.8,0,17.8-8,17.8-17.8C131.4,367.1,123.4,359.1,113.5,359.1z"/>
	</g>
</g>
<g>
	<path d="M110,99.6c1,0.9,1.5,2.2,1.5,3.8s-0.5,2.9-1.5,3.9s-2.5,1.4-4.5,1.4H102V98.2h3.7C107.6,98.2,109,98.7,110,99.6z
		 M108.3,105.8c0.6-0.5,0.9-1.3,0.9-2.4s-0.3-1.8-0.9-2.4c-0.6-0.6-1.5-0.8-2.6-0.8h-1.3v6.4h1.5
		C106.9,106.6,107.7,106.4,108.3,105.8z"/>
	<path d="M116.4,98.2h2.3v10.5h-2.3V98.2z"/>
	<path d="M131,103.4h2.4v3.7c-1,1.2-2.5,1.7-4.3,1.7c-1.5,0-2.8-0.5-3.9-1.5s-1.6-2.3-1.6-3.9c0-1.6,0.5-2.9,1.6-3.9
		s2.3-1.6,3.9-1.6c1.5,0,2.8,0.5,3.9,1.5l-1.2,1.8c-0.5-0.4-0.9-0.7-1.3-0.8c-0.4-0.2-0.8-0.2-1.3-0.2c-0.9,0-1.6,0.3-2.2,0.9
		c-0.6,0.6-0.9,1.4-0.9,2.4c0,1,0.3,1.8,0.9,2.4c0.6,0.6,1.3,0.9,2.1,0.9c0.8,0,1.5-0.2,2-0.5V103.4z"/>
	<path d="M138.4,98.2h2.3v10.5h-2.3V98.2z"/>
	<path d="M153.4,99.2c0.7,0.6,1.1,1.6,1.1,2.9s-0.4,2.2-1.1,2.8c-0.8,0.6-1.9,0.9-3.5,0.9h-1.4v2.9h-2.3V98.2h3.7
		C151.5,98.2,152.7,98.5,153.4,99.2z M151.7,103.3c0.3-0.3,0.4-0.8,0.4-1.4c0-0.6-0.2-1-0.5-1.3c-0.4-0.3-0.9-0.4-1.7-0.4h-1.3v3.5
		h1.6C150.9,103.8,151.4,103.6,151.7,103.3z"/>
	<path d="M166,108.7l-1-2.3h-4.4l-1,2.3h-2.5l4.5-10.5h2.3l4.5,10.5H166z M162.8,101.3l-1.3,3h2.6L162.8,101.3z"/>
	<path d="M175.1,100.3c-0.2,0.2-0.3,0.4-0.3,0.7c0,0.3,0.1,0.5,0.4,0.7c0.3,0.2,0.9,0.4,1.9,0.6s1.8,0.6,2.3,1.1
		c0.5,0.5,0.8,1.2,0.8,2.1s-0.4,1.7-1.1,2.3s-1.6,0.9-2.8,0.9c-1.7,0-3.2-0.6-4.5-1.8l1.4-1.7c1.1,1,2.2,1.5,3.1,1.5
		c0.4,0,0.8-0.1,1-0.3s0.4-0.4,0.4-0.8s-0.1-0.6-0.4-0.8c-0.3-0.2-0.8-0.4-1.5-0.6c-1.2-0.3-2.1-0.7-2.7-1.1
		c-0.6-0.5-0.8-1.2-0.8-2.2s0.4-1.8,1.1-2.3s1.6-0.8,2.7-0.8c0.7,0,1.4,0.1,2.1,0.4c0.7,0.2,1.3,0.6,1.8,1l-1.2,1.7
		c-0.9-0.7-1.9-1-2.8-1C175.6,100,175.3,100.1,175.1,100.3z"/>
	<path d="M187.5,100.3c-0.2,0.2-0.3,0.4-0.3,0.7c0,0.3,0.1,0.5,0.4,0.7c0.3,0.2,0.9,0.4,1.9,0.6s1.8,0.6,2.3,1.1
		c0.5,0.5,0.8,1.2,0.8,2.1s-0.4,1.7-1.1,2.3s-1.6,0.9-2.8,0.9c-1.7,0-3.2-0.6-4.5-1.8l1.4-1.7c1.1,1,2.2,1.5,3.1,1.5
		c0.4,0,0.8-0.1,1-0.3s0.4-0.4,0.4-0.8s-0.1-0.6-0.4-0.8c-0.3-0.2-0.8-0.4-1.5-0.6c-1.2-0.3-2.1-0.7-2.7-1.1
		c-0.6-0.5-0.8-1.2-0.8-2.2s0.4-1.8,1.1-2.3s1.6-0.8,2.7-0.8c0.7,0,1.4,0.1,2.1,0.4c0.7,0.2,1.3,0.6,1.8,1l-1.2,1.7
		c-0.9-0.7-1.9-1-2.8-1C188,100,187.7,100.1,187.5,100.3z"/>
</g>
</svg>
