<?xml version="1.0" encoding="utf-8"?>
<!-- Generator: Adobe Illustrator 19.1.0, SVG Export Plug-In . SVG Version: 6.00 Build 0)  -->
<svg version="1.1" id="Layer_1" xmlns="http://www.w3.org/2000/svg" xmlns:xlink="http://www.w3.org/1999/xlink" x="0px" y="0px"
	 width="566.9px" height="154px" viewBox="0 0 566.9 154" style="enable-background:new 0 0 566.9 154;" xml:space="preserve">
<style type="text/css">
	.st0{fill:#C4D600;}
	.st1{fill:#84BD00;}
	.st2{fill:#00AE53;}
	.st3{fill:#006341;}
</style>
<g>
	<path id="XMLID_736_" class="st0" d="M90.6,0c-2.2,4.9-6.8,8.1-11.7,11.2c-5,3-15.8,9.5-16,18.5v27.7h1.8c2.2-5,7.7-8,10.8-9.9
		c3.3-2.1,13-7.2,13.9-15.9l3.1-31.3L90.6,0z"/>
	<path id="XMLID_731_" class="st0" d="M26.2,31.6c0.9,8.7,10.5,13.9,13.9,15.9c3.1,1.9,8.6,4.9,10.8,9.9h1.8V29.7
		c-0.3-9-11-15.5-16-18.5C31.7,8.1,27.1,4.9,24.9,0l-1.8,0.3L26.2,31.6z"/>
	<path id="XMLID_730_" class="st1" d="M50.8,105.8h1.8V78c0-11.8-16.8-18.7-26.1-24.1c-13.2-7.6-22-12.3-24.6-19L0,35.2
		c0,0,2.4,20.7,3.5,32.1c0.9,8.9,13.7,15.3,23,20.7C39.5,95.5,48.1,99.2,50.8,105.8"/>
	<path id="XMLID_729_" class="st1" d="M62.9,105.8h1.8c2.7-6.5,11.3-10.3,24.4-17.8c9.2-5.4,22.1-11.8,23-20.7
		c1-11.4,3.5-32.1,3.5-32.1l-1.9-0.3c-2.7,6.7-11.4,11.4-24.6,19C79.7,59.3,62.9,66.5,62.9,78V105.8z"/>
	<path id="XMLID_728_" class="st2" d="M62.9,154h1.8c2.7-6.8,11.2-10.3,24.3-17.8c9.4-5.5,22.2-11.9,23.1-20.7
		c1-11.6,3.2-32.2,3.2-32.2l-1.7-0.1c-2.7,6.5-11.6,11.4-24.6,18.7c-9.4,5.4-26.1,12.4-26.1,24.4V154z"/>
	<path id="XMLID_727_" class="st2" d="M50.8,154h1.8v-27.7c0-11.9-16.7-19-26.1-24.4c-13.1-7.3-22-12.2-24.6-18.7l-1.7,0.1
		c0,0,2.2,20.7,3.2,32.2c0.9,8.7,13.7,15.1,23.1,20.7C39.7,143.8,48.1,147.2,50.8,154"/>
	<path id="XMLID_718_" class="st3" d="M276,122.1h-15v-48c0.1-8.1-0.1-10.1-7.2-9.9v-10c9.9-1.7,20.8-2.3,20.8,10.7
		c2.1-7.8,12.3-12.1,18.2-12.1c5.1,0,9.5,0.8,13.5,4.1l-3.7,12.6c-3.5-2.4-6.9-3.5-11-3.5c-7.8,0-15.5,6.5-15.5,17.6V122.1z
		 M446.4,123.6c-13.5,0-25.2-7.4-25.2-22.6c0-14.8,12.2-22.7,28-22.7c6.2,0,13,1.8,18.6,5.1V78c0-10.3-7.6-13.2-17.5-13.2
		c-8.5,0-16.9,2.4-21.7,5.1l-2.2-11.7c6.9-3.3,16-5.4,25.7-5.4c18,0,30.7,5.9,30.7,24.5v25.5c0,7.8-0.1,10.4,6.8,9.9l0.4,9.2
		c-10.7,2.7-19.3,1.2-19.3-11.3C466.2,119.9,455.5,123.6,446.4,123.6 M467.8,99.3v-5.6c-4.8-3-10.5-4.7-16.2-4.6
		c-9.1,0.1-15,4.5-15,11.8c0,6.9,5,10.9,14,10.9C457.1,111.7,466.3,107.9,467.8,99.3 M384.4,99.5V27.8h15v71.4
		c0,10.1,1.7,12.8,14.2,11.6l0.6,11.6C394.2,126.7,384.4,120.8,384.4,99.5 M306.3,86.9c0.4-22.7,16-34.1,34.5-34.1
		c23.9,0,34.5,15.9,30,38.4h-48.5c0,12.3,8.7,19.5,22.1,19.5c10.1,0,15.2-1.9,23-4.9l2.2,11.9c-7.1,3.6-15.7,5.9-25.9,5.9
		C321.3,123.6,305.5,109.8,306.3,86.9 M201.7,123.6c-23.4,0-47-13.1-47-46.5c0-33.4,23.6-46.5,47-46.5c22.7,0,41.6,12.1,42.9,33.6
		h-16.2c-1.9-11.3-9.9-18.6-26.1-18.6c-17.2,0-29.9,11-30,31.4c0.1,20.3,12.8,31.4,30,31.4c16.2,0,24.1-7.3,26.1-18.6h16.2
		C243.2,111.6,224.4,123.6,201.7,123.6 M340.5,64.7c-9.5,0-15.8,4.9-17.8,15.5H358C358.4,70.1,349.6,64.7,340.5,64.7 M518.9,122.1
		h-15v-48c0-8.1-0.3-10.1-7.2-9.9v-10c9.8-1.7,20.7-2.3,20.7,10.7c4.2-8.3,14.4-12.1,23.1-12.1c19.1,0,26.4,11.2,26.4,30.2v39.2h-15
		V83.7c0-13.5-5.3-18.5-15.1-18.6c-9.5-0.1-17.8,7.6-17.8,18.5V122.1z"/>
</g>
</svg>
