<?xml version="1.0" encoding="UTF-8"?><!DOCTYPE svg PUBLIC "-//W3C//DTD SVG 1.1//EN" "http://www.w3.org/Graphics/SVG/1.1/DTD/svg11.dtd"><svg xmlns="http://www.w3.org/2000/svg" xmlns:xlink="http://www.w3.org/1999/xlink"><symbol id="arrow-button" viewBox="0 0 43.7 43.7"><path d="M21.8 0C9.8 0 0 9.8 0 21.8s9.8 21.8 21.8 21.8 21.8-9.8 21.8-21.8C43.7 9.8 33.9 0 21.8 0zm0 39.7C12 39.7 4 31.7 4 21.8 4 12 12 4 21.8 4s17.8 8 17.8 17.8c.1 9.9-7.9 17.9-17.8 17.9z"/><path d="M10.9 21.7L28.5 31V12.4z"/></symbol><symbol id="cards" viewBox="0 0 47.6 43.4"><g fill="#C9DA2B"><path d="M26.1 24.3h5.8v2.6h-5.8zM6.1 29.3h13.3v2.6H6.1zM6.1 35.1h3.3v2.6H6.1zM13.6 35.1h3.3v2.6h-3.3zM21.1 35.1h3.3v2.6h-3.3zM28.6 35.1h3.3v2.6h-3.3z"/><path d="M47.4 19.5l-6-17.1c-.3-.9-1-1.7-1.9-2.1-.9-.4-1.9-.5-2.8-.2L7 10.6c-.9.3-1.7 1-2.1 1.9s-.5 1.9-.2 2.8l.9 2.5H3.7c-2 0-3.7 1.7-3.7 3.7v18.1c0 2 1.7 3.7 3.7 3.7h31.4c2 0 3.7-1.7 3.7-3.7V26.5l6.3-2.2c2-.7 3-2.8 2.3-4.8zM7.5 13.7c.1-.2.3-.4.5-.4L37.6 2.9c.5-.2 1 .1 1.1.5l.9 2.5-31.3 11-.9-2.5c0-.2 0-.4.1-.7zm28.5 26c0 .5-.4.9-.9.9H3.7c-.5 0-.9-.4-.9-.9V21.6c0-.5.4-.9.9-.9h31.4c.5 0 .9.4.9.9v18.1zm8.2-18.1l-5.4 1.9v-1.9c0-2-1.7-3.7-3.7-3.7h-21l26.4-9.3 4.2 11.9c.2.4-.1.9-.5 1.1z"/><path d="M34.561 15.866l-.862-2.453 5-1.757.863 2.453z"/></g></symbol><symbol id="circle-close" viewBox="0 0 51.2 51.2"><use xlink:href="/images/svg.svg#circle-plus" transform="rotate(45 25.6 25.6)"/></symbol><symbol id="circle-plus" viewBox="0 0 51.2 51.2"><path d="M24.8 40h1.6V26.4H40v-1.6H26.4V11.2h-1.6v13.6H11.2v1.6h13.6V40zm0 0"/><path d="M25.6 51.2c6.8 0 13.3-2.7 18.1-7.5 4.8-4.8 7.5-11.3 7.5-18.1 0-6.8-2.7-13.3-7.5-18.1C38.9 2.7 32.4 0 25.6 0 18.8 0 12.3 2.7 7.5 7.5 2.7 12.3 0 18.8 0 25.6c0 6.8 2.7 13.3 7.5 18.1 4.8 4.8 11.3 7.5 18.1 7.5zM8.6 8.6c4.5-4.5 10.6-7 17-7s12.4 2.5 17 7c4.5 4.5 7 10.6 7 17s-2.5 12.4-7 17c-4.5 4.5-10.6 7-17 7s-12.4-2.5-17-7c-4.5-4.5-7-10.6-7-17s2.5-12.4 7-17zm0 0"/></symbol><symbol id="crelan" viewBox="-137 518.5 566.9 154"><path fill="#C4D600" d="M-46.4 518.5c-2.2 4.9-6.8 8.1-11.7 11.2-5 3-15.8 9.5-16 18.5v27.7h1.8c2.2-5 7.7-8 10.8-9.9 3.3-2.1 13-7.2 13.9-15.9l3.1-31.3-1.9-.3zM-110.8 550.1c.9 8.7 10.5 13.9 13.9 15.9 3.1 1.9 8.6 4.9 10.8 9.9h1.8v-27.7c-.3-9-11-15.5-16-18.5-5-3.1-9.6-6.3-11.8-11.2l-1.8.3 3.1 31.3z"/><path fill="#84BD00" d="M-86.2 624.3h1.8v-27.8c0-11.8-16.8-18.7-26.1-24.1-13.2-7.6-22-12.3-24.6-19l-1.9.3s2.4 20.7 3.5 32.1c.9 8.9 13.7 15.3 23 20.7 13 7.5 21.6 11.2 24.3 17.8M-74.1 624.3h1.8c2.7-6.5 11.3-10.3 24.4-17.8 9.2-5.4 22.1-11.8 23-20.7 1-11.4 3.5-32.1 3.5-32.1l-1.9-.3c-2.7 6.7-11.4 11.4-24.6 19-9.4 5.4-26.2 12.6-26.2 24.1v27.8z"/><path fill="#00AE53" d="M-74.1 672.5h1.8c2.7-6.8 11.2-10.3 24.3-17.8 9.4-5.5 22.2-11.9 23.1-20.7 1-11.6 3.2-32.2 3.2-32.2l-1.7-.1c-2.7 6.5-11.6 11.4-24.6 18.7-9.4 5.4-26.1 12.4-26.1 24.4v27.7zM-86.2 672.5h1.8v-27.7c0-11.9-16.7-19-26.1-24.4-13.1-7.3-22-12.2-24.6-18.7l-1.7.1s2.2 20.7 3.2 32.2c.9 8.7 13.7 15.1 23.1 20.7 13.2 7.6 21.6 11 24.3 17.8"/><path fill="#006341" d="M139 640.6h-15v-48c.1-8.1-.1-10.1-7.2-9.9v-10c9.9-1.7 20.8-2.3 20.8 10.7 2.1-7.8 12.3-12.1 18.2-12.1 5.1 0 9.5.8 13.5 4.1l-3.7 12.6c-3.5-2.4-6.9-3.5-11-3.5-7.8 0-15.5 6.5-15.5 17.6v38.5h-.1zm170.4 1.5c-13.5 0-25.2-7.4-25.2-22.6 0-14.8 12.2-22.7 28-22.7 6.2 0 13 1.8 18.6 5.1v-5.4c0-10.3-7.6-13.2-17.5-13.2-8.5 0-16.9 2.4-21.7 5.1l-2.2-11.7c6.9-3.3 16-5.4 25.7-5.4 18 0 30.7 5.9 30.7 24.5v25.5c0 7.8-.1 10.4 6.8 9.9l.4 9.2c-10.7 2.7-19.3 1.2-19.3-11.3-4.5 9.3-15.2 13-24.3 13m21.4-24.3v-5.6c-4.8-3-10.5-4.7-16.2-4.6-9.1.1-15 4.5-15 11.8 0 6.9 5 10.9 14 10.9 6.5-.1 15.7-3.9 17.2-12.5m-83.4.2v-71.7h15v71.4c0 10.1 1.7 12.8 14.2 11.6l.6 11.6c-20 4.3-29.8-1.6-29.8-22.9m-78.1-12.6c.4-22.7 16-34.1 34.5-34.1 23.9 0 34.5 15.9 30 38.4h-48.5c0 12.3 8.7 19.5 22.1 19.5 10.1 0 15.2-1.9 23-4.9l2.2 11.9c-7.1 3.6-15.7 5.9-25.9 5.9-22.4 0-38.2-13.8-37.4-36.7M64.7 642.1c-23.4 0-47-13.1-47-46.5s23.6-46.5 47-46.5c22.7 0 41.6 12.1 42.9 33.6H91.4c-1.9-11.3-9.9-18.6-26.1-18.6-17.2 0-29.9 11-30 31.4.1 20.3 12.8 31.4 30 31.4 16.2 0 24.1-7.3 26.1-18.6h16.2c-1.4 21.8-20.2 33.8-42.9 33.8m138.8-58.9c-9.5 0-15.8 4.9-17.8 15.5H221c.4-10.1-8.4-15.5-17.5-15.5m178.4 57.4h-15v-48c0-8.1-.3-10.1-7.2-9.9v-10c9.8-1.7 20.7-2.3 20.7 10.7 4.2-8.3 14.4-12.1 23.1-12.1 19.1 0 26.4 11.2 26.4 30.2v39.2h-15v-38.5c0-13.5-5.3-18.5-15.1-18.6-9.5-.1-17.8 7.6-17.8 18.5v38.5h-.1z"/></symbol><symbol id="digipass-serialnumber" viewBox="0 0 65 120.8"><path d="M63.2 9.9c-.7-3.8-1.4-4.6-2-4.8-4-1.9-21.9-5-28.7-5C25.8 0 7.8 3.2 3.8 5c-.6.3-1.3 1.1-2 4.8-2.9 14.9-4 65.9 10 81.3 7.7 8.9 17.5 10.8 20.6 10.8S45.3 100 53 91.1C67.2 75.8 66.1 24.7 63.2 9.9zM52 90.2c-6.5 7.5-15.4 10.3-19.5 10.3s-13-2.8-19.5-10.3C8 84.7 4.4 73.6 2.7 57.9c-1.3-12-1.6-26.4-.6-38.5.7-8.7 1.8-12.6 2.4-13 3.8-1.8 21.6-4.9 28-4.9s24.2 3.1 28 4.9c.6.5 1.7 4.3 2.4 13 1 12.1.8 26.5-.6 38.5C60.6 73.6 57 84.7 52 90.2z"/><path d="M48.3 55H16.7c-1.3 0-3.2.9-3.2 3.2V66c0 .1 0 .8.4 1.6.5 1.1 1.5 1.7 2.8 1.7h31.5c1.3 0 3.2-.9 3.2-3.2v-7.8c.1-1.4-.8-3.3-3.1-3.3zM50 65.9c0 1.6-1.4 1.7-1.7 1.7H16.7c-1.6 0-1.7-1.4-1.7-1.7v-7.8c0-1.6 1.4-1.7 1.7-1.7h31.5c1.6 0 1.7 1.4 1.7 1.7v7.8zM45.4 106.2c-3.5-1.1-8-1.8-12.9-1.8s-9.5.6-12.9 1.8c-4.8 1.6-5.8 3.5-5.8 4.9 0 1.4 1 3.3 5.8 4.9.4.1.8-.1 1-.5.1-.4-.1-.8-.5-1-3-1-4.7-2.3-4.7-3.5 0-2.4 7.1-5.2 17.2-5.2s17.2 2.7 17.2 5.2c0 2.4-7 5.1-17 5.1l2.6-2.9c.3-.3.3-.8-.1-1.1-.3-.3-.8-.3-1.1.1l-4.4 4.8 5.3 3.5c.1.1.3.1.4.1.2 0 .5-.1.6-.3.2-.3.1-.8-.2-1l-2.5-1.6c4.5-.1 8.7-.7 11.9-1.8 4.8-1.6 5.8-3.5 5.8-4.9.1-1.3-.9-3.2-5.7-4.8z"/><g fill="currentColor"><path d="M44.6 60.9h-2v2h2zM27.9 60.9v2h1.9v-2zM24.2 60.9v2h2l-.1-2zM31.6 60.9v2h1.9v-2zM38.9 60.9v2h2v-2zM35.3 60.9v2h1.9v-2zM20.5 60.9v2h2l-.1-2z"/></g></symbol><symbol id="digipass-token" viewBox="-326.3 66.1 228.7 192.2"><path d="M-149.5 84.3c-1.4-7-2.7-8.3-3.5-8.8-7.5-3.5-41.3-9.5-54.1-9.5-12.7 0-46.5 5.9-54.1 9.5-.8.4-2.1 1.7-3.5 8.8-2.9 14.6-4.6 45.6-2.5 76.8 1.8 26.3 7 61.1 21.4 76.9 14.4 16.6 32.8 20.3 38.7 20.3 5.8 0 24.2-3.7 38.6-20.2 14.4-15.8 19.6-50.5 21.4-76.9 2.3-31.3.5-62.3-2.4-76.9zm.9 76.7c-1.8 26.1-6.9 60.4-21 75.9-12.4 14.4-29.5 19.7-37.4 19.7-3.4 0-9.4-1.1-16.3-4.1-5.6-2.5-13.9-7.2-21.1-15.6-14.1-15.5-19.2-49.8-21-75.9-2.2-31-.4-61.9 2.4-76.4 1.3-6.8 2.4-7.5 2.6-7.5 7.2-3.4 41.1-9.3 53.3-9.3 12.2 0 46.2 5.9 53.3 9.3.1 0 1.2.7 2.6 7.5 3 14.5 4.7 45.4 2.6 76.4z"/><path d="M-177.1 95.3h-59.8c-1.9 0-5.5 1.2-5.5 5.5v14.7c0 1.9 1.2 5.5 5.5 5.5h59.8c1.9 0 5.5-1.2 5.5-5.5v-14.7s0-1.4-.7-2.7c-.6-1.3-2-2.8-4.8-2.8zm3.8 20.2c0 3.7-3.5 3.9-3.9 3.9H-237c-3.7 0-3.9-3.5-3.9-3.9v-14.7c0-3.7 3.5-3.9 3.9-3.9h59.8c3.7 0 3.9 3.5 3.9 3.9v14.7zM-207 153.6c5 0 9-4.1 9-9s-4.1-9-9-9c-5 0-9 4.1-9 9s4 9 9 9zm0-16.5c4.1 0 7.4 3.3 7.4 7.4 0 4.1-3.3 7.4-7.4 7.4s-7.4-3.3-7.4-7.4c0-4 3.3-7.4 7.4-7.4zM-207 179.7c5 0 9-4.1 9-9s-4.1-9-9-9c-5 0-9 4.1-9 9s4 9 9 9zm0-16.5c4.1 0 7.4 3.3 7.4 7.4s-3.3 7.4-7.4 7.4-7.4-3.3-7.4-7.4 3.3-7.4 7.4-7.4zM-197.9 196.7c0-5-4.1-9-9-9-5 0-9 4.1-9 9s4.1 9 9 9 9-4.1 9-9zm-9.1 7.3c-4.1 0-7.4-3.3-7.4-7.4 0-4.1 3.3-7.4 7.4-7.4s7.4 3.3 7.4 7.4c0 4.1-3.3 7.4-7.4 7.4zM-194.5 213.4c-5 0-9 4.1-9 9 0 5 4.1 9 9 9 5 0 9-4.1 9-9 .1-5-4-9-9-9zm0 16.5c-4.1 0-7.4-3.3-7.4-7.4s3.3-7.4 7.4-7.4 7.4 3.3 7.4 7.4c0 4-3.3 7.4-7.4 7.4zM-180.6 135.5c-5 0-9 4.1-9 9 0 5 4.1 9 9 9 5 0 9-4.1 9-9 0-5-4.1-9-9-9zm0 16.4c-4.1 0-7.4-3.3-7.4-7.4s3.3-7.4 7.4-7.4 7.4 3.3 7.4 7.4-3.4 7.4-7.4 7.4zM-180.6 161.5c-5 0-9 4.1-9 9s4.1 9 9 9c5 0 9-4.1 9-9s-4.1-9-9-9zm0 16.5c-4.1 0-7.4-3.3-7.4-7.4s3.3-7.4 7.4-7.4 7.4 3.3 7.4 7.4-3.4 7.4-7.4 7.4zM-180.6 187.6c-5 0-9 4.1-9 9 0 5 4.1 9 9 9 5 0 9-4.1 9-9 0-5-4.1-9-9-9zm0 16.4c-4.1 0-7.4-3.3-7.4-7.4 0-4.1 3.3-7.4 7.4-7.4s7.4 3.3 7.4 7.4c-.1 4.1-3.4 7.4-7.4 7.4zM-233.4 153.5c5 0 9-4.1 9-9 0-5-4.1-9-9-9-5 0-9 4.1-9 9 0 5 4 9 9 9zm0-16.4c4.1 0 7.4 3.3 7.4 7.4 0 4.1-3.3 7.4-7.4 7.4-4.1 0-7.4-3.3-7.4-7.4 0-4.1 3.3-7.4 7.4-7.4zM-233.4 179.7c5 0 9-4.1 9-9s-4.1-9-9-9c-5 0-9 4.1-9 9-.1 4.9 3.9 9 9 9zm0-16.5c4.1 0 7.4 3.3 7.4 7.4s-3.3 7.4-7.4 7.4-7.4-3.3-7.4-7.4c-.1-4.1 3.2-7.4 7.4-7.4zM-224.4 196.7c0-5-4.1-9-9-9-5 0-9 4.1-9 9s4.1 9 9 9 9-4.1 9-9zm-9 7.3c-4.1 0-7.4-3.3-7.4-7.4 0-4.1 3.3-7.4 7.4-7.4s7.4 3.3 7.4 7.4c-.1 4.1-3.4 7.4-7.4 7.4zM-220.9 213.4c-5 0-9 4.1-9 9 0 5 4.1 9 9 9 5 0 9-4.1 9-9 0-5-4-9-9-9zm0 16.5c-4.1 0-7.4-3.3-7.4-7.4s3.3-7.4 7.4-7.4 7.4 3.3 7.4 7.4c0 4-3.3 7.4-7.4 7.4z"/><path d="M-191.5 226.6v-8.4l-8 4.1zM-234.3 148.8h2.2v-8.6h-3.5v2h1.3z"/><g><circle cx="-230" cy="108.1" r="2.7"/><circle cx="-220.9" cy="108.1" r="2.7"/><circle cx="-211.8" cy="108.1" r="2.7"/><circle cx="-202.8" cy="108.1" r="2.7"/><circle cx="-193.7" cy="108.1" r="2.7"/><circle cx="-184.7" cy="108.1" r="2.7"/></g><g><path d="M-179 107.6h70v1h-70z"/></g><text transform="translate(-141.343 105.36)" fill="#666" font-family="Montserrat" font-size="11">stap 5</text><g><path d="M-179 222.3h70v1h-70z"/></g><text transform="translate(-141.343 219.972)" fill="#666" font-family="Montserrat" font-size="11">stap 3</text><g><path d="M-317.3 144.3h70v1h-70z"/></g><text transform="translate(-317.342 142.048)" fill="#666" font-family="Montserrat" font-size="11">stap 4</text></symbol><symbol id="digipass" viewBox="0 0 294.1 463.2"><path d="M147 463.2c-14.1 0-58.4-8.8-93.2-48.9-34.6-38-47.1-121.7-51.5-185.2-5.2-75.2-.9-150 6-185.2 3.3-16.9 6.4-20.1 8.4-21.1C34.8 14.3 116.4 0 147 0s112.3 14.3 130.3 22.9c2 1 5.1 4.2 8.4 21.1 6.9 35.1 11.2 110 6 185.2-4.4 63.5-16.9 147.2-51.6 185.3-34.6 39.9-78.9 48.7-93.1 48.7zM147 4C117.5 4 35.7 18.3 18.4 26.5c-.3.1-3 1.8-6.2 18.2C5.4 79.6 1.1 154 6.3 228.8c4.3 62.9 16.6 145.6 50.6 182.9 17.5 20.2 37.3 31.5 50.8 37.5 16.7 7.4 31.3 10 39.3 10 18.9 0 60.2-12.9 90.1-47.5 34-37.3 46.3-120 50.6-182.9 5.2-74.8.9-149.2-6-184.1-3.2-16.4-5.9-18.1-6.2-18.2C258.3 18.3 176.6 4 147 4z"/><path d="M219.1 132.5H75c-10.6 0-13.3-8.7-13.3-13.3V83.7c0-10.6 8.7-13.3 13.3-13.3h144.2c6.9 0 10.2 3.7 11.7 6.8 1.6 3.2 1.6 6.4 1.6 6.6v35.4c-.1 10.5-8.8 13.3-13.4 13.3zM75 74.4c-1 0-9.3.3-9.3 9.3v35.4c0 .9.3 9.3 9.3 9.3h144.2c.9 0 9.3-.3 9.3-9.3V83.7c0-.9-.3-9.3-9.3-9.3H75zM147 211c-12 0-21.8-9.8-21.8-21.8s9.8-21.8 21.8-21.8 21.8 9.8 21.8 21.8S159.1 211 147 211zm0-39.7c-9.8 0-17.8 8-17.8 17.8s8 17.8 17.8 17.8 17.8-8 17.8-17.8-7.9-17.8-17.8-17.8zM147 273.8c-12 0-21.8-9.8-21.8-21.8s9.8-21.8 21.8-21.8 21.8 9.8 21.8 21.8c.1 12-9.7 21.8-21.8 21.8zm0-39.7c-9.8 0-17.8 8-17.8 17.8s8 17.8 17.8 17.8 17.8-8 17.8-17.8c.1-9.8-7.9-17.8-17.8-17.8zM147 336.6c-12 0-21.8-9.8-21.8-21.8S135 293 147 293s21.8 9.8 21.8 21.8-9.7 21.8-21.8 21.8zm0-39.7c-9.8 0-17.8 8-17.8 17.8s8 17.8 17.8 17.8 17.8-8 17.8-17.8c.1-9.8-7.9-17.8-17.8-17.8zM177.3 398.8c-12 0-21.8-9.8-21.8-21.8s9.8-21.8 21.8-21.8 21.8 9.8 21.8 21.8-9.8 21.8-21.8 21.8zm0-39.7c-9.8 0-17.8 8-17.8 17.8s8 17.8 17.8 17.8 17.8-8 17.8-17.8-8-17.8-17.8-17.8zM210.6 211c-12 0-21.8-9.8-21.8-21.8s9.8-21.8 21.8-21.8 21.8 9.8 21.8 21.8-9.8 21.8-21.8 21.8zm0-39.7c-9.8 0-17.8 8-17.8 17.8s8 17.8 17.8 17.8 17.8-8 17.8-17.8-8-17.8-17.8-17.8zM210.6 273.8c-12 0-21.8-9.8-21.8-21.8s9.8-21.8 21.8-21.8 21.8 9.8 21.8 21.8-9.8 21.8-21.8 21.8zm0-39.7c-9.8 0-17.8 8-17.8 17.8s8 17.8 17.8 17.8 17.8-8 17.8-17.8-8-17.8-17.8-17.8zM210.6 336.6c-12 0-21.8-9.8-21.8-21.8s9.8-21.8 21.8-21.8 21.8 9.8 21.8 21.8-9.8 21.8-21.8 21.8zm0-39.7c-9.8 0-17.8 8-17.8 17.8s8 17.8 17.8 17.8 17.8-8 17.8-17.8-8-17.8-17.8-17.8zM83.3 211c-12 0-21.8-9.8-21.8-21.8s9.8-21.8 21.8-21.8 21.8 9.8 21.8 21.8S95.3 211 83.3 211zm0-39.7c-9.8 0-17.8 8-17.8 17.8s8 17.8 17.8 17.8 17.8-8 17.8-17.8-8-17.8-17.8-17.8zM83.3 273.8c-12 0-21.8-9.8-21.8-21.8s9.8-21.8 21.8-21.8 21.8 9.8 21.8 21.8-9.8 21.8-21.8 21.8zm0-39.7c-9.8 0-17.8 8-17.8 17.8s8 17.8 17.8 17.8 17.8-8 17.8-17.8-8-17.8-17.8-17.8zM83.3 336.6c-12 0-21.8-9.8-21.8-21.8S71.3 293 83.3 293s21.8 9.8 21.8 21.8-9.8 21.8-21.8 21.8zm0-39.7c-9.8 0-17.8 8-17.8 17.8s8 17.8 17.8 17.8 17.8-8 17.8-17.8-8-17.8-17.8-17.8zM113.5 398.8c-12 0-21.8-9.8-21.8-21.8s9.8-21.8 21.8-21.8 21.8 9.8 21.8 21.8-9.7 21.8-21.8 21.8zm0-39.7c-9.8 0-17.8 8-17.8 17.8s8 17.8 17.8 17.8 17.8-8 17.8-17.8c.1-9.8-7.9-17.8-17.8-17.8z"/><g><path d="M110 99.6c1 .9 1.5 2.2 1.5 3.8s-.5 2.9-1.5 3.9-2.5 1.4-4.5 1.4H102V98.2h3.7c1.9 0 3.3.5 4.3 1.4zm-1.7 6.2c.6-.5.9-1.3.9-2.4s-.3-1.8-.9-2.4c-.6-.6-1.5-.8-2.6-.8h-1.3v6.4h1.5c1 0 1.8-.2 2.4-.8zM116.4 98.2h2.3v10.5h-2.3V98.2zM131 103.4h2.4v3.7c-1 1.2-2.5 1.7-4.3 1.7-1.5 0-2.8-.5-3.9-1.5s-1.6-2.3-1.6-3.9.5-2.9 1.6-3.9 2.3-1.6 3.9-1.6c1.5 0 2.8.5 3.9 1.5l-1.2 1.8c-.5-.4-.9-.7-1.3-.8-.4-.2-.8-.2-1.3-.2-.9 0-1.6.3-2.2.9-.6.6-.9 1.4-.9 2.4s.3 1.8.9 2.4c.6.6 1.3.9 2.1.9s1.5-.2 2-.5v-2.9zM138.4 98.2h2.3v10.5h-2.3V98.2zM153.4 99.2c.7.6 1.1 1.6 1.1 2.9s-.4 2.2-1.1 2.8c-.8.6-1.9.9-3.5.9h-1.4v2.9h-2.3V98.2h3.7c1.6 0 2.8.3 3.5 1zm-1.7 4.1c.3-.3.4-.8.4-1.4 0-.6-.2-1-.5-1.3-.4-.3-.9-.4-1.7-.4h-1.3v3.5h1.6c.7.1 1.2-.1 1.5-.4zM166 108.7l-1-2.3h-4.4l-1 2.3h-2.5l4.5-10.5h2.3l4.5 10.5H166zm-3.2-7.4l-1.3 3h2.6l-1.3-3zM175.1 100.3c-.2.2-.3.4-.3.7 0 .3.1.5.4.7.3.2.9.4 1.9.6s1.8.6 2.3 1.1c.5.5.8 1.2.8 2.1s-.4 1.7-1.1 2.3-1.6.9-2.8.9c-1.7 0-3.2-.6-4.5-1.8l1.4-1.7c1.1 1 2.2 1.5 3.1 1.5.4 0 .8-.1 1-.3s.4-.4.4-.8-.1-.6-.4-.8c-.3-.2-.8-.4-1.5-.6-1.2-.3-2.1-.7-2.7-1.1-.6-.5-.8-1.2-.8-2.2s.4-1.8 1.1-2.3 1.6-.8 2.7-.8c.7 0 1.4.1 2.1.4.7.2 1.3.6 1.8 1l-1.2 1.7c-.9-.7-1.9-1-2.8-1-.4.1-.7.2-.9.4zM187.5 100.3c-.2.2-.3.4-.3.7 0 .3.1.5.4.7.3.2.9.4 1.9.6s1.8.6 2.3 1.1c.5.5.8 1.2.8 2.1s-.4 1.7-1.1 2.3-1.6.9-2.8.9c-1.7 0-3.2-.6-4.5-1.8l1.4-1.7c1.1 1 2.2 1.5 3.1 1.5.4 0 .8-.1 1-.3s.4-.4.4-.8-.1-.6-.4-.8c-.3-.2-.8-.4-1.5-.6-1.2-.3-2.1-.7-2.7-1.1-.6-.5-.8-1.2-.8-2.2s.4-1.8 1.1-2.3 1.6-.8 2.7-.8c.7 0 1.4.1 2.1.4.7.2 1.3.6 1.8 1l-1.2 1.7c-.9-.7-1.9-1-2.8-1-.4.1-.7.2-.9.4z"/></g></symbol><symbol id="direct-mail-identification" viewBox="0 0 61.5 61.5"><path d="M53.5 19.7V0H8v19.7l-8 6.7v35.1h61.5V26.4l-8-6.7zm0 1.9l6 5.1-6 4.2v-9.3zM9.5 1.5H52V32l-11.1 7.8-.6-.6c-4.2-4.2-15-4.2-19.2 0l-.6.6-11-7.8V1.5zM8 21.6v9.3l-6-4.2 6-5.1zm-6.5 6.6L8 32.7l11.5 8-18 18.1V28.2zM2.6 60l19.7-19.8c3.6-3.6 13.5-3.6 17.1 0L58.9 60H2.6zM60 58.9L42 40.8l11.5-8 6.5-4.6v30.7z"/><path d="M16.8 10h10v1.5h-10zM22.8 18h22v1.5h-22zM16.8 26h28v1.5h-28z"/><g><path fill="#FFF410" d="M48.5 6.1H47V4.6h1.5zM45.7 6.1h-1.5V4.6h1.5v1.5zm-2.8 0h-1.5V4.6h1.5v1.5zm-2.9 0h-1.5V4.6H40v1.5zm-2.8 0h-1.5V4.6h1.5v1.5zm-2.9 0h-1.5V4.6h1.5v1.5zM31.5 6.1H30V4.6h1.5z"/></g></symbol><symbol id="function-1-button" viewBox="0 0 43.7 43.7"><path d="M21.8 0C9.8 0 0 9.8 0 21.8s9.8 21.8 21.8 21.8 21.8-9.8 21.8-21.8C43.7 9.8 33.9 0 21.8 0zm0 39.7C12 39.7 4 31.7 4 21.8 4 12 12 4 21.8 4s17.8 8 17.8 17.8c.1 9.9-7.9 17.9-17.8 17.9z"/><path d="M17.1 12v4h3.2v15.7h4.2V12h-4.2z"/></symbol><symbol id="in-app-digipass" viewBox="0 0 246.7 463.2"><path d="M123.4 329.3c-6.5 0-26.7-4-42.5-22.4C52 275 54.3 169.9 60.3 139.3c1.5-7.8 3-9.5 4.3-10.1 8.8-4.2 46-10.4 58.7-10.4 12.7 0 50 6.2 58.7 10.4 1.3.6 2.8 2.3 4.3 10.1 6 30.6 8.3 135.7-20.6 167.7-15.6 18.3-35.9 22.3-42.3 22.3zM66.5 132.7c-2.8 3-7.1 34.2-5.7 75.2 2.2 64.1 15.4 87.9 23.1 96.4 13.2 15.3 31.2 21 39.5 21s26.3-5.7 39.5-21c7.7-8.5 20.9-32.3 23.1-96.4 1.4-41-2.9-72.3-5.7-75.2-7.9-3.7-43.8-10-56.9-10-13.1.1-49 6.4-56.9 10z"/><path d="M154.5 179H92.2c-5.6 0-7.7-4.6-7.7-7.7v-12.9c0-5.6 4.6-7.7 7.7-7.7h62.3c5.6 0 7.7 4.6 7.7 7.7v12.9c0 5.7-4.6 7.7-7.7 7.7zm-62.3-24.2c-.9 0-3.7.3-3.7 3.7v12.9c0 .8.3 3.7 3.7 3.7h62.3c.8 0 3.7-.3 3.7-3.7v-12.9c0-.8-.3-3.7-3.7-3.7H92.2zM123.4 214.7c-5.5 0-9.9-4.5-9.9-9.9 0-5.5 4.5-9.9 9.9-9.9s9.9 4.5 9.9 9.9-4.5 9.9-9.9 9.9zm0-15.9c-3.3 0-5.9 2.7-5.9 5.9 0 3.3 2.7 5.9 5.9 5.9 3.3 0 5.9-2.7 5.9-5.9s-2.7-5.9-5.9-5.9zM123.4 243.2c-5.5 0-9.9-4.5-9.9-9.9 0-5.5 4.5-9.9 9.9-9.9s9.9 4.5 9.9 9.9c0 5.5-4.5 9.9-9.9 9.9zm0-15.8c-3.3 0-5.9 2.7-5.9 5.9 0 3.3 2.7 5.9 5.9 5.9 3.3 0 5.9-2.7 5.9-5.9 0-3.3-2.7-5.9-5.9-5.9zM123.4 271.8c-5.5 0-9.9-4.5-9.9-9.9s4.5-9.9 9.9-9.9 9.9 4.5 9.9 9.9-4.5 9.9-9.9 9.9zm0-15.9c-3.3 0-5.9 2.7-5.9 5.9s2.7 5.9 5.9 5.9c3.3 0 5.9-2.7 5.9-5.9s-2.7-5.9-5.9-5.9zM137.1 300c-5.5 0-9.9-4.5-9.9-9.9s4.5-9.9 9.9-9.9 9.9 4.5 9.9 9.9-4.4 9.9-9.9 9.9zm0-15.8c-3.3 0-5.9 2.7-5.9 5.9s2.7 5.9 5.9 5.9 5.9-2.7 5.9-5.9-2.6-5.9-5.9-5.9zM152.3 214.7c-5.5 0-9.9-4.5-9.9-9.9 0-5.5 4.5-9.9 9.9-9.9 5.5 0 9.9 4.5 9.9 9.9s-4.5 9.9-9.9 9.9zm0-15.9c-3.3 0-5.9 2.7-5.9 5.9 0 3.3 2.7 5.9 5.9 5.9s5.9-2.7 5.9-5.9-2.7-5.9-5.9-5.9zM152.3 243.2c-5.5 0-9.9-4.5-9.9-9.9 0-5.5 4.5-9.9 9.9-9.9 5.5 0 9.9 4.5 9.9 9.9 0 5.5-4.5 9.9-9.9 9.9zm0-15.8c-3.3 0-5.9 2.7-5.9 5.9 0 3.3 2.7 5.9 5.9 5.9s5.9-2.7 5.9-5.9c0-3.3-2.7-5.9-5.9-5.9zM152.3 271.8c-5.5 0-9.9-4.5-9.9-9.9s4.5-9.9 9.9-9.9c5.5 0 9.9 4.5 9.9 9.9s-4.5 9.9-9.9 9.9zm0-15.9c-3.3 0-5.9 2.7-5.9 5.9s2.7 5.9 5.9 5.9 5.9-2.7 5.9-5.9-2.7-5.9-5.9-5.9zM94.4 214.7c-5.5 0-9.9-4.5-9.9-9.9 0-5.5 4.5-9.9 9.9-9.9 5.5 0 9.9 4.5 9.9 9.9s-4.4 9.9-9.9 9.9zm0-15.9c-3.3 0-5.9 2.7-5.9 5.9 0 3.3 2.7 5.9 5.9 5.9 3.3 0 5.9-2.7 5.9-5.9s-2.7-5.9-5.9-5.9zM94.4 243.2c-5.5 0-9.9-4.5-9.9-9.9 0-5.5 4.5-9.9 9.9-9.9 5.5 0 9.9 4.5 9.9 9.9 0 5.5-4.4 9.9-9.9 9.9zm0-15.8c-3.3 0-5.9 2.7-5.9 5.9 0 3.3 2.7 5.9 5.9 5.9 3.3 0 5.9-2.7 5.9-5.9 0-3.3-2.7-5.9-5.9-5.9zM94.4 271.8c-5.5 0-9.9-4.5-9.9-9.9s4.5-9.9 9.9-9.9c5.5 0 9.9 4.5 9.9 9.9s-4.4 9.9-9.9 9.9zm0-15.9c-3.3 0-5.9 2.7-5.9 5.9s2.7 5.9 5.9 5.9c3.3 0 5.9-2.7 5.9-5.9s-2.7-5.9-5.9-5.9zM108.1 300c-5.5 0-9.9-4.5-9.9-9.9s4.5-9.9 9.9-9.9c5.5 0 9.9 4.5 9.9 9.9s-4.4 9.9-9.9 9.9zm0-15.8c-3.3 0-5.9 2.7-5.9 5.9s2.7 5.9 5.9 5.9c3.3 0 5.9-2.7 5.9-5.9s-2.6-5.9-5.9-5.9z"/><path d="M225.1 463.2H21.7C8.9 463.2 0 451.6 0 435V28.2C0 11.6 8.9 0 21.7 0h203.4c12.8 0 21.7 11.6 21.7 28.2V435c-.1 16.6-9 28.2-21.7 28.2zM21.7 4C11.3 4 4 14 4 28.2V435c0 14.3 7.3 24.2 17.7 24.2h203.4c10.4 0 17.7-10 17.7-24.2V28.2C242.7 14 235.5 4 225.1 4H21.7z"/><path d="M109.4 27.7s-2 0-2 2v3.2s0 2 2 2h27.9s2 0 2-2v-3.2s0-2-2-2h-27.9z"/><g><path d="M235.3 401.1H11.5V50.6h223.8v350.5zm-219.8-4h215.8V54.6H15.5v342.5z"/></g><g><path d="M123.4 450.7c-11.2 0-20.4-9.1-20.4-20.4 0-11.2 9.1-20.4 20.4-20.4s20.4 9.1 20.4 20.4c-.1 11.2-9.2 20.4-20.4 20.4zm0-36.8c-9 0-16.4 7.3-16.4 16.4 0 9 7.3 16.4 16.4 16.4 9 0 16.4-7.3 16.4-16.4-.1-9-7.4-16.4-16.4-16.4z"/></g><g><path d="M102.3 163c.6.5.8 1.2.8 2.1 0 .9-.3 1.6-.8 2.2-.5.5-1.4.8-2.5.8h-2v-5.8h2.1c1-.1 1.8.2 2.4.7zm-1 3.5c.3-.3.5-.7.5-1.3 0-.6-.2-1-.5-1.3-.3-.3-.8-.5-1.5-.5h-.7v3.5h.8c.7 0 1.1-.1 1.4-.4zM106 162.2h1.3v5.8H106v-5.8zM114.2 165.1h1.3v2.1c-.6.6-1.4 1-2.4 1-.9 0-1.6-.3-2.2-.9-.6-.6-.9-1.3-.9-2.1s.3-1.6.9-2.2c.6-.6 1.3-.9 2.1-.9s1.6.3 2.2.8l-.7 1c-.3-.2-.5-.4-.7-.5-.2-.1-.5-.1-.7-.1-.5 0-.9.2-1.3.5-.3.3-.5.8-.5 1.3 0 .6.2 1 .5 1.3.3.3.7.5 1.2.5s.8-.1 1.1-.3v-1.5zM118.5 162.2h1.3v5.8h-1.3v-5.8zM127 162.7c.4.3.6.9.6 1.6s-.2 1.2-.6 1.6c-.4.3-1.1.5-1.9.5h-.8v1.6H123v-5.8h2.1c.8 0 1.5.2 1.9.5zm-1 2.3c.2-.2.2-.4.2-.8 0-.3-.1-.6-.3-.7-.2-.1-.5-.2-.9-.2h-.7v2h.9c.4 0 .7-.1.8-.3zM134.1 168.1l-.5-1.3h-2.4l-.5 1.3h-1.4l2.5-5.8h1.3l2.5 5.8h-1.5zm-1.7-4.1l-.7 1.7h1.5l-.8-1.7zM139.3 163.4c-.1.1-.2.2-.2.4s.1.3.2.4c.2.1.5.2 1.1.4.6.1 1 .3 1.3.6s.5.7.5 1.2-.2.9-.6 1.3-.9.5-1.5.5c-.9 0-1.8-.3-2.5-1l.8-1c.6.6 1.2.8 1.7.8.2 0 .4-.1.6-.2.1-.1.2-.2.2-.4s-.1-.3-.2-.4c-.1-.1-.4-.2-.9-.3-.7-.2-1.2-.4-1.5-.6-.3-.3-.5-.7-.5-1.2 0-.6.2-1 .6-1.3s.9-.5 1.5-.5c.4 0 .8.1 1.2.2.4.1.7.3 1 .6l-.7 1c-.5-.4-1-.6-1.6-.6-.2-.1-.3 0-.5.1zM146.4 163.4c-.1.1-.2.2-.2.4s.1.3.2.4c.2.1.5.2 1.1.4.6.1 1 .3 1.3.6s.5.7.5 1.2-.2.9-.6 1.3-.9.5-1.5.5c-.9 0-1.8-.3-2.5-1l.8-1c.6.6 1.2.8 1.7.8.2 0 .4-.1.6-.2.1-.1.2-.2.2-.4s-.1-.3-.2-.4c-.1-.1-.4-.2-.9-.3-.7-.2-1.2-.4-1.5-.6-.3-.3-.5-.7-.5-1.2 0-.6.2-1 .6-1.3s.9-.5 1.5-.5c.4 0 .8.1 1.2.2.4.1.7.3 1 .6l-.7 1c-.5-.4-1-.6-1.6-.6-.2-.1-.4 0-.5.1z"/></g></symbol><symbol id="lock" viewBox="0 0 142.9 212.4"><path d="M129.2 76V57.8C129.3 25.9 103.3 0 71.5 0 39.6 0 13.7 25.9 13.7 57.8V76C6.1 76.1 0 82.3 0 89.9v108.5c0 7.7 6.3 14 14 14h114.9c7.7 0 14-6.3 14-14V89.9c0-7.6-6.1-13.8-13.7-13.9zM25.7 57.8C25.7 32.5 46.2 12 71.5 12s45.8 20.5 45.8 45.8V76H25.6V57.8zm105.2 140.6c0 1.1-.9 2-2 2H14c-1.1 0-2-.9-2-2V89.9c0-1.1.9-2 2-2h114.9c1.1 0 2 .9 2 2v108.5zm0 0"/><path d="M81.5 117.4h-20c-7.3 0-13.2 5.9-13.2 13.2v9.1c0 5.4 2.5 12.4 7.3 15.4.8.6 2.4 3.6 2.4 6.6v5.4c0 7.3 5.9 13.2 13.2 13.2h.6c7.3 0 13.2-5.9 13.2-13.2v-5.4c0-3 1.6-6.1 2.4-6.6 4.8-3 7.3-10 7.3-15.4v-9.1c0-7.3-6-13.2-13.2-13.2zm2.8 22.3c0 3-1.6 6.1-2.4 6.6-4.8 3-7.3 10-7.3 15.4v5.4c0 1.5-1.3 2.8-2.8 2.8h-.6c-1.5 0-2.8-1.3-2.8-2.8v-5.4c0-5.4-2.5-12.4-7.3-15.4-.8-.6-2.4-3.6-2.4-6.6v-9.1c0-1.5 1.3-2.8 2.8-2.8h20c1.5 0 2.8 1.3 2.8 2.8v9.1zm0 0"/></symbol></svg>